<svg xmlns="http://www.w3.org/2000/svg" version="1.1" xmlns:xlink="http://www.w3.org/1999/xlink" width="48" height="48"><svg width="48" height="48" viewBox="0 0 48 48" fill="none" xmlns="http://www.w3.org/2000/svg">
<g clip-path="url(#clip0_175_827)">
<g clip-path="url(#clip1_175_827)">
<path d="M48.0656 16.6434L7.39551 5.7915L0.369478 32.1233L41.0396 42.9752L48.0656 16.6434Z" fill="#E4007F"></path>
<path d="M18.3672 25.6573C18.8214 25.6333 19.3907 24.7457 19.8078 24.4872C20.8343 23.8585 21.6321 22.9381 22.5322 22.145C22.1207 21.4083 22.1761 20.7674 21.2017 20.7414C20.7424 20.6265 20.4708 20.7806 20.1034 21.0464C19.7594 21.2775 19.3649 21.4209 19.0765 21.7339C18.6114 22.3379 17.5567 25.2391 18.3683 25.6576L18.3672 25.6573ZM17.9363 26.2611C17.2462 25.867 17.3325 24.8653 17.4142 24.1655C17.6106 22.7044 18.6736 21.6365 19.5209 20.5272C19.9067 20.1358 20.4398 20.1023 20.94 19.9943C21.9735 19.7999 22.4851 21.0617 22.9197 21.8128C22.9778 21.7626 23.0367 21.7137 23.0965 21.6663C23.1713 21.6064 23.245 21.5462 23.3195 21.4874C23.173 20.8676 23.9939 20.7996 24.3609 20.5395C25.0031 19.8184 25.5135 20.7426 25.0452 21.3457C23.7953 22.6551 22.4274 23.8211 21.0125 24.9346C20.2272 25.7819 19.1275 26.6579 17.9374 26.2614L17.9363 26.2611Z" fill="#231815"></path>
<path d="M25.5181 29.1651C25.2506 28.7514 25.4446 28.2158 25.4593 27.7531C25.5802 26.6525 26.1386 25.6786 26.6064 24.7003C25.7422 25.114 24.9704 25.6782 24.35 26.4322C23.6878 27.2279 22.2431 27.707 21.8924 26.3884C21.706 25.2948 22.397 24.2905 22.9849 23.4385C23.6717 22.6388 23.9601 21.5537 24.6439 20.7603C25.3601 20.1624 25.7017 21.5761 24.9612 21.7385C24.1611 22.6195 23.5546 23.6417 23.1328 24.7639C22.9893 25.1897 22.7154 25.5934 22.706 26.054C22.7098 26.0574 22.7133 26.0618 22.7182 26.0655C22.7223 26.0678 22.725 26.0708 22.7291 26.0731C23.5961 25.5086 24.5666 25.1633 25.4211 24.5708C26.4608 23.5636 27.5179 22.5705 28.651 21.6753C28.9015 21.5121 29.1226 21.1388 29.4572 21.2673C29.7765 21.4268 29.7753 21.8919 29.6083 22.1728C29.3386 22.6047 28.9609 22.9572 28.5866 23.2929C28.3084 23.8354 27.9407 24.3304 27.6235 24.8518C27.1078 25.5657 26.778 26.3976 26.6559 27.2745C26.598 27.7186 26.5701 28.1648 26.5227 28.6092C26.5163 29.1023 25.8993 29.668 25.5195 29.1643L25.5181 29.1651Z" fill="#231815"></path>
<path d="M28.1993 25.9113C28.8495 25.9456 29.4311 25.5643 30.0295 25.3533C31.0124 24.9397 31.9519 24.451 32.814 23.8041C32.433 23.2436 31.0476 23.339 30.4427 23.4648C29.5362 24.067 28.3907 24.6709 28.0264 25.7803C28.0582 25.8546 28.1179 25.9082 28.1982 25.911L28.1993 25.9113ZM28.1626 27.3117C26.4801 26.4061 27.9903 24.3097 28.8383 23.3029C29.548 22.5975 30.9749 22.3558 31.9193 22.5113C32.802 22.8794 33.6791 23.6022 33.8226 24.6279C33.7878 25.3543 33.1006 25.726 32.5612 26.0634C31.284 26.8647 29.683 27.9272 28.1637 27.312L28.1626 27.3117Z" fill="#231815"></path>
<path d="M23.1023 34.5981C22.2512 34.2349 21.4452 33.664 20.9106 32.8825C20.3478 31.9126 20.7338 30.7044 21.5113 29.9783C22.1709 29.236 22.7149 30.3902 22.2223 30.9434C21.137 32.1734 21.1815 32.3099 22.7591 32.7256C24.095 33.3762 24.8544 33.1518 25.8693 32.0616C26.5814 31.1935 27.1905 30.2319 28.0304 29.4792C28.5392 29.0232 29.0481 28.5672 29.5099 28.0586C29.8877 27.5346 30.2637 27.0042 30.6861 26.5156C31.3568 25.6576 32.3526 25.2087 33.1408 24.4867C33.6273 23.8684 34.21 23.3428 34.9186 23.0144C35.3368 22.6117 35.8035 22.2384 36.3702 22.1058C36.7256 21.8543 38.0177 21.0018 38.1018 21.78C38.1128 22.0897 37.8292 22.2359 37.5619 22.2159C37.2923 22.2483 37.0338 22.3577 36.776 22.4426C36.4 22.5781 36.1992 22.9591 35.8607 23.161C35.6424 23.3529 35.3866 23.483 35.1401 23.6308C34.9436 23.8203 34.7654 24.0335 34.5546 24.2062C33.9803 24.6564 33.3052 24.9303 32.769 25.4354C32.0555 26.3525 31.2841 27.2271 30.3838 27.9554C29.1179 29.0172 28.5297 30.6507 27.4548 31.8859C26.3136 33.0175 24.9286 35.4671 23.101 34.5989L23.1023 34.5981Z" fill="#231815"></path>
<path d="M19.8054 28.4433C19.3694 28.2066 18.9692 27.7832 18.5774 27.4866C18.1057 27.1064 17.6382 26.6579 17.4802 25.9845C17.3425 25.4457 17.3114 24.8732 17.1909 24.3273C17.0849 23.85 16.8628 23.4332 16.6871 22.9924C16.5573 22.5733 16.4912 22.1313 16.4237 21.6901C16.3792 21.4349 16.3235 21.1779 16.1949 20.9648C15.8604 21.0773 15.4694 21.1065 15.1935 20.8469C15.0567 20.7256 14.9198 20.5831 14.8513 20.3955C14.67 19.9756 14.9367 19.182 15.4201 19.4044C15.5785 19.4492 15.7289 19.5153 15.8823 19.5788C15.9944 19.6253 16.1007 19.6937 16.1985 19.7716C16.2719 19.7784 16.3462 19.7818 16.4191 19.7861C16.8813 19.7806 17.3565 19.7705 17.8046 19.5979C18.2074 19.4238 18.5814 19.1596 18.9426 18.8862C19.1871 18.6755 19.4273 18.459 19.6905 18.2839C20.0372 18.0383 20.442 17.9399 20.7775 17.6702C21.1701 17.3499 21.4084 16.8684 21.6156 16.3845C21.8147 15.9442 21.7262 15.428 21.5419 15.0237C21.0748 13.9642 20.607 14.1703 19.71 14.2285C19.2287 14.2699 18.75 14.3591 18.2698 14.4232C18.0822 14.4564 17.8947 14.5072 17.7132 14.5749C17.6712 14.9245 17.5173 15.2664 17.3898 15.5801C17.188 16.1971 16.8528 16.7725 16.3933 17.1759C16.117 17.4439 15.7896 17.6088 15.4681 17.7824C15.228 17.9285 15.0083 18.1164 14.7826 18.2922C14.4549 18.537 14.0713 18.7492 13.6832 18.7063C12.9219 18.6045 12.7471 17.6997 13.0256 16.954C13.191 16.4906 13.5004 16.1034 13.8619 15.8289C14.2817 15.4947 14.7955 15.3844 15.2031 15.0212C15.8493 14.4516 16.5443 13.8668 17.3565 13.7436C17.3082 13.5555 17.2482 13.3714 17.2157 13.177C17.1936 13.0665 17.1716 12.9513 17.105 12.8664C17.0387 12.7981 16.9482 12.7715 16.8926 12.6896C16.8347 12.5989 16.9122 12.3928 17.0194 12.4357C17.0194 12.4357 17.02 12.4335 17.0189 12.4332C17.156 12.4829 17.2037 12.6426 17.2899 12.7597C17.5265 12.9864 17.6253 13.3326 17.6441 13.6879C18.1615 13.5949 18.6508 13.3171 19.1737 13.2691C19.5809 13.2407 20.0079 13.2658 20.3822 13.439C20.7513 13.6143 21.1347 13.7581 21.4969 13.9504C22.6123 14.4679 22.4566 15.9434 21.9921 17.0366C21.8696 17.2964 21.6982 17.5196 21.5157 17.7269C21.2459 18.0319 20.9818 18.3419 20.7378 18.6738C20.4273 19.0913 20.0634 19.4756 19.6143 19.6691C19.2034 19.8387 18.7781 19.9563 18.3539 20.0612C17.8 20.1678 17.2943 20.4719 16.7759 20.722C17.0047 21.579 17.1976 22.4863 17.3401 23.3624C17.4783 23.9519 17.7939 24.4454 18.0866 24.9364C18.3719 25.3936 18.4758 25.9621 18.6785 26.4689C19.0223 27.1945 19.6584 27.7023 20.393 27.7463C20.5238 27.4029 20.5273 27.0125 20.4743 26.6574C20.4677 26.6251 20.4611 26.5928 20.4531 26.5613C20.3869 26.3214 20.5504 25.9174 20.8057 25.9999C20.885 26.0329 20.9274 26.116 20.9531 26.204C21.0706 26.5727 21.0495 26.9761 20.9966 27.3662C20.9536 27.7989 20.892 28.3795 20.4854 28.5679C20.2524 28.6218 20.0144 28.5451 19.8054 28.4433ZM14.039 17.6945C14.4269 17.6985 14.8397 17.6493 15.2128 17.5025C15.5722 17.3237 15.8472 16.9861 16.1372 16.6889C16.4483 16.3174 16.8031 15.9976 17.1053 15.6155C17.2963 15.3717 17.3245 15.0431 17.3283 14.735C16.916 14.9184 16.5016 15.0965 16.0733 15.2121C15.7251 15.3668 15.3646 15.4887 15.0427 15.7163C14.6648 16.0475 14.3424 16.4524 13.9888 16.816C13.8143 17.0196 13.6028 17.2039 13.4937 17.4661C13.6325 17.6279 13.8449 17.6731 14.0382 17.6931L14.039 17.6945Z" fill="#231815"></path>
<path d="M5.6233 24.7767C4.86788 24.666 4.16428 24.34 3.50156 23.9403C3.39217 23.8792 3.28496 23.8187 3.18524 23.7391C2.94093 23.5456 2.91216 23.1441 3.02866 22.8322C3.12209 22.5493 3.41827 22.2949 3.66267 22.4661C3.76365 22.5367 3.86858 22.6012 3.97411 22.6636C4.24297 22.805 4.54073 22.8166 4.83656 22.7959C5.33817 22.7705 5.84091 22.7759 6.32957 22.8822C6.65168 22.9521 6.96622 23.0634 7.28561 23.1478C7.58683 23.1991 7.89174 23.2279 8.19769 23.2441C8.35164 23.2266 8.5042 23.2099 8.65816 23.1923C8.81025 23.1379 8.96125 23.0832 9.11306 23.0298C9.46108 22.8363 9.80707 22.6328 10.1277 22.3791C10.4182 22.1549 10.6999 21.906 11.0037 21.7112C11.1459 21.6365 11.2893 21.562 11.4315 21.4873C11.6892 21.3942 11.946 21.3043 12.1904 21.1641C12.6179 20.8626 12.9394 20.4128 13.3196 20.0423C13.7874 19.6164 14.1934 19.1058 14.6555 18.6749C14.968 18.4519 15.2807 18.2278 15.5779 17.9783C15.8349 17.6816 16.0946 17.3881 16.3847 17.1344C16.6606 16.8851 16.9725 16.6995 17.2597 16.4697C17.4258 16.3191 17.5951 16.1741 17.7807 16.0605C18.0399 15.8913 18.3308 15.8189 18.5992 15.6769C18.7581 15.562 18.9122 15.4387 19.0615 15.3071C19.306 15.1141 19.5814 14.9763 19.8633 14.885C20.0103 14.8056 20.1584 14.7266 20.3059 14.6498C20.6374 14.4612 21.0068 14.5344 21.3476 14.3942C21.573 14.2724 21.8066 14.181 22.0467 14.1184C22.2573 14.0914 22.4712 14.0958 22.6796 14.1293C22.8607 14.1332 23.0374 14.0748 23.2192 14.0542C23.4149 14.0784 23.6063 14.1579 23.795 14.2214C23.8816 14.2446 23.975 14.2426 24.0581 14.2789C24.1724 14.3436 24.2869 14.4119 24.378 14.5151C24.4579 14.5588 24.5311 14.6102 24.5978 14.6774C24.6717 14.7524 24.729 14.8501 24.7883 14.94C24.8525 15.003 24.8649 15.1321 24.812 15.2155C24.7511 15.3155 24.6496 15.2648 24.6219 15.1704C24.5493 15.0381 24.4601 14.9191 24.3735 14.7995C24.2829 14.6859 24.132 14.7007 24.0092 14.6631C23.9091 14.6421 23.8182 14.5908 23.7256 14.546C23.5425 14.5145 23.3586 14.477 23.1733 14.4626C23.0646 14.4252 22.9568 14.3799 22.845 14.3499C22.5581 14.333 22.2852 14.4914 22.0047 14.5514C21.7179 14.6262 21.4233 14.6072 21.1399 14.7087C21.0208 14.7802 20.9018 14.8518 20.7827 14.9233C20.5133 15.1085 20.2025 15.1498 19.9193 15.2902C19.7206 15.4132 19.5244 15.5487 19.3163 15.6457C19.0965 15.7467 18.8712 15.8285 18.6551 15.9422C18.4064 16.1376 18.1811 16.3687 17.9376 16.5715C17.7881 16.6865 17.6289 16.7849 17.4737 16.8902C17.1005 17.1252 16.8149 17.5023 16.457 17.7637C16.2139 17.9689 15.9517 18.1361 15.6908 18.3071C15.4144 18.5974 15.1572 18.9081 14.9235 19.245C14.6666 19.5593 14.3876 19.8548 14.098 20.1286C13.7687 20.4846 13.4477 20.8535 13.0864 21.1668C12.6527 21.5572 12.2818 22.029 11.9048 22.4886C11.7715 22.6703 11.6043 22.803 11.4358 22.9364C11.2744 23.1 11.0731 23.1801 10.8789 23.2691C10.1608 23.5762 9.40641 23.729 8.6755 23.9786C8.09605 24.2111 7.51821 24.4465 6.92385 24.6163C6.49822 24.7573 6.05559 24.8126 5.62191 24.7775L5.6233 24.7767Z" fill="#231815"></path>
<path d="M30.3005 29.6418C30.1328 29.4911 30.1198 29.2502 30.1592 29.0551C30.2147 28.7515 30.4509 28.5104 30.7269 28.3575C30.9547 28.2223 31.2115 28.1324 31.4358 27.9927C31.6947 27.8599 31.8999 27.6599 32.1393 27.5031C32.3866 27.3566 32.6188 27.1873 32.8916 27.0817C33.0278 27.0078 33.2058 26.9838 33.293 26.8555C33.4124 26.7171 33.5516 26.5969 33.6872 26.4722C33.7997 26.3508 33.9398 26.2578 34.0841 26.1708C34.4727 25.9094 34.9169 25.7299 35.3223 25.493C36.1569 24.9926 36.6674 24.1751 37.3641 23.5355C37.7835 23.1942 38.2637 22.9198 38.6814 22.5757C38.824 22.4165 38.9791 22.2676 39.1058 22.0971C38.9356 22.1666 38.7642 22.2359 38.594 22.3055C38.3706 22.3761 38.1281 22.3992 37.9057 22.4748C37.6433 22.5596 37.3822 22.6436 37.125 22.7393C36.9277 22.7827 36.7381 22.8236 36.549 22.8846C36.3712 22.9557 36.1962 23.0298 36.0214 23.1076C35.8401 23.1659 35.6526 23.2121 35.4755 23.281C35.2203 23.4042 35.0197 23.5961 34.7715 23.7282C34.4903 23.8174 34.1857 23.8968 33.9996 24.1266C33.9175 24.2222 33.8065 24.29 33.7204 24.3832C33.6146 24.5018 33.5018 24.6244 33.4326 24.7645C33.4125 24.8614 33.383 24.9757 33.3474 25.0649C33.3205 25.1258 33.3012 25.1935 33.3127 25.2601C33.3256 25.3129 33.3443 25.3614 33.3675 25.4111C33.3866 25.4667 33.3797 25.5319 33.4089 25.5855C33.4763 25.6671 33.5414 25.7621 33.6318 25.8192C33.6757 25.831 33.7101 25.8472 33.7483 25.8716C33.8005 25.8785 33.83 25.9087 33.8759 25.9304C33.9379 25.9271 34.0259 25.9319 34.0678 25.9819C34.0836 26.0061 34.0642 26.0479 34.0312 26.0438C34.0157 26.049 34.0033 26.0469 33.9859 26.0375C33.9262 26.0321 33.8874 25.9841 33.8311 25.9749C33.7862 25.9757 33.7604 25.9665 33.7231 25.9436C33.6858 25.9336 33.6924 25.9353 33.6493 25.912C33.6225 25.8978 33.5961 25.8649 33.5733 25.8447C33.5413 25.8326 33.5049 25.8193 33.4825 25.7933C33.4379 25.7402 33.3875 25.6915 33.3597 25.6288C33.3206 25.5772 33.2694 25.527 33.25 25.4677C33.2388 25.3954 33.2345 25.3237 33.2363 25.2513C33.2058 25.1021 33.182 24.9453 33.2504 24.8038C33.3091 24.7079 33.363 24.6119 33.4101 24.5105C33.525 24.3274 33.6723 24.1635 33.8256 24.0083C33.9563 23.9152 34.0973 23.832 34.2218 23.7313C34.3045 23.6465 34.3899 23.5648 34.4782 23.4851C34.5582 23.4148 34.63 23.3353 34.7377 23.3019C34.955 23.2015 35.193 23.1465 35.4172 23.0597C35.5849 22.9648 35.7544 22.8715 35.9245 22.7807C36.2286 22.6636 36.5438 22.5706 36.8319 22.4209C37.1747 22.2554 37.5554 22.1682 37.915 22.0366C38.0907 21.9555 38.2664 21.8745 38.4432 21.7938C38.6156 21.7248 38.8017 21.6795 38.9771 21.6171C39.2529 21.5265 39.5164 21.4114 39.794 21.3271C40.2201 20.943 40.6133 20.5195 41.0944 20.1935C41.4204 19.9683 41.7967 19.814 42.1426 19.6153C42.4625 19.4389 42.7404 19.1913 43.1015 19.0848C43.2185 19.0386 43.3467 19.0165 43.4755 19.0357C43.9527 19.0355 44.2619 19.5309 43.8557 19.8275C43.6324 20.0027 43.3884 20.1548 43.1562 20.3194C42.8922 20.5107 42.6247 20.6976 42.3362 20.8577C42.0689 21.0306 41.7892 21.193 41.482 21.2999C41.3352 21.3346 41.191 21.3771 41.0426 21.409C40.3756 21.5253 40.4823 21.4646 40.0613 21.9394C39.8976 22.1118 39.7415 22.2909 39.5538 22.4428C39.3442 22.6111 39.156 22.8004 38.9691 22.9889C38.583 23.4649 38.2796 24.0053 37.8187 24.4225C37.3742 24.8005 36.8429 25.0683 36.3628 25.4039C35.9614 25.6607 35.6422 26.0053 35.3283 26.3478C36.2149 26.127 37.0659 25.7933 37.988 25.6901C38.2817 25.6466 38.5794 25.61 38.8775 25.59C39.0109 25.5787 39.1533 25.5781 39.2725 25.6464C39.7206 25.9346 39.5377 26.5426 39.3269 26.8998C39.113 27.2679 38.7973 27.5688 38.5095 27.8842C38.2282 28.1885 37.9819 28.5244 37.8169 28.8986C37.6878 29.1438 37.8687 29.4073 38.0086 29.6222C38.3824 30.1831 38.9227 30.3996 39.5959 30.4836C40.3077 30.5862 41.0055 30.7802 41.7183 30.8748C42.1298 30.9357 42.5393 30.8986 42.9424 30.8373C43.1508 30.8097 43.3613 30.7874 43.5671 30.7473C43.6613 30.7291 43.7669 30.7691 43.8361 30.8311C44.0961 31.0759 43.9942 31.5658 43.6536 31.679C43.1105 31.8285 42.5528 31.9623 41.9809 31.9912C41.1573 32.0209 40.3235 31.8386 39.557 31.5368C39.0845 31.3397 38.6539 31.0562 38.2168 30.7969C37.3323 30.3037 36.5052 29.7413 36.8506 28.6891C37.0185 28.2334 37.3966 27.8928 37.7597 27.5682C38.0956 27.2492 38.4035 26.9027 38.6602 26.5237C38.0116 26.659 37.3684 26.8181 36.7053 26.8978C36.0986 26.9644 35.5044 27.0943 34.9464 27.3127C34.6421 27.4309 34.3436 27.5578 34.047 27.691C33.5731 27.9378 33.1322 28.2322 32.6588 28.4814C32.2723 28.6823 31.9071 28.9135 31.5684 29.1777C31.367 29.3282 31.1616 29.4765 30.9381 29.6C30.7567 29.7594 30.5016 29.8344 30.2955 29.6429L30.3005 29.6418Z" fill="#231815"></path>
</g>
</g>
<defs>
<clipPath id="SvgjsClipPath1003">
<rect width="48" height="48" fill="white"></rect>
</clipPath>
<clipPath id="SvgjsClipPath1002">
<rect width="42.122" height="27.2979" fill="white" transform="translate(7.40723 5.74805) rotate(15)"></rect>
</clipPath>
</defs>
</svg><style>@media (prefers-color-scheme: light) { :root { filter: none; } }
@media (prefers-color-scheme: dark) { :root { filter: none; } }
</style></svg>