<svg width="" height="" viewBox="0 0 34 34" fill="none" xmlns="http://www.w3.org/2000/svg">
<g clip-path="url(#clip0_320_3179)">
<g clip-path="url(#clip1_320_3179)">
<g clip-path="url(#clip2_320_3179)">
<path d="M9.86 0H24.14C29.58 0 34 4.42 34 9.86V24.14C34 26.7551 32.9611 29.263 31.112 31.112C29.263 32.9611 26.7551 34 24.14 34H9.86C4.42 34 0 29.58 0 24.14V9.86C0 7.24496 1.03882 4.73703 2.88793 2.88793C4.73703 1.03882 7.24496 0 9.86 0ZM9.52 3.4C7.89687 3.4 6.34024 4.04478 5.19251 5.19251C4.04478 6.34024 3.4 7.89687 3.4 9.52V24.48C3.4 27.863 6.137 30.6 9.52 30.6H24.48C26.1032 30.6 27.6599 29.9552 28.8075 28.8075C29.9552 27.6599 30.6 26.1032 30.6 24.48V9.52C30.6 6.137 27.863 3.4 24.48 3.4H9.52ZM25.925 5.95C26.4886 5.95 27.0292 6.17389 27.4276 6.5724C27.8261 6.97092 28.05 7.51142 28.05 8.075C28.05 8.63858 27.8261 9.17908 27.4276 9.5776C27.0292 9.97611 26.4886 10.2 25.925 10.2C25.3615 10.2 24.8209 9.97611 24.4224 9.5776C24.0239 9.17908 23.8 8.63858 23.8 8.075C23.8 7.51142 24.0239 6.97092 24.4224 6.5724C24.8209 6.17389 25.3615 5.95 25.925 5.95ZM17 8.5C19.2544 8.5 21.4164 9.39553 23.0103 10.9896C24.6044 12.5837 25.5 14.7457 25.5 17C25.5 19.2544 24.6044 21.4164 23.0103 23.0103C21.4164 24.6044 19.2544 25.5 17 25.5C14.7457 25.5 12.5837 24.6044 10.9896 23.0103C9.39553 21.4164 8.5 19.2544 8.5 17C8.5 14.7457 9.39553 12.5837 10.9896 10.9896C12.5837 9.39553 14.7457 8.5 17 8.5ZM17 11.9C15.6474 11.9 14.3502 12.4373 13.3938 13.3938C12.4373 14.3502 11.9 15.6474 11.9 17C11.9 18.3525 12.4373 19.6498 13.3938 20.6062C14.3502 21.5626 15.6474 22.1 17 22.1C18.3525 22.1 19.6498 21.5626 20.6062 20.6062C21.5626 19.6498 22.1 18.3525 22.1 17C22.1 15.6474 21.5626 14.3502 20.6062 13.3938C19.6498 12.4373 18.3525 11.9 17 11.9Z" fill="#BEC0CF"/>
</g>
</g>
</g>
<defs>
<clipPath id="clip0_320_3179">
<rect width="34" height="34" fill="white"/>
</clipPath>
<clipPath id="clip1_320_3179">
<rect width="34" height="34" fill="white"/>
</clipPath>
<clipPath id="clip2_320_3179">
<rect width="34" height="34" fill="white"/>
</clipPath>
</defs>
</svg>
