<svg width="28" height="28" viewBox="0 0 28 28" fill="none" xmlns="http://www.w3.org/2000/svg">
<mask id="mask0_320_2443" style="mask-type:luminance" maskUnits="userSpaceOnUse" x="0" y="0" width="28" height="28">
<path d="M28 0H0V28H28V0Z" fill="#D9D9D9"/>
</mask>
<g mask="url(#mask0_320_2443)">
<path d="M17.8209 14.5541L13.4458 10.15L16.6834 6.94166L15.8375 6.09584L10.2667 11.6667C10.0333 11.9 9.76111 12.0167 9.45 12.0167C9.13889 12.0167 8.86666 11.9 8.63334 11.6667C8.4 11.4333 8.28334 11.1562 8.28334 10.8354C8.28334 10.5146 8.4 10.2375 8.63334 10.0042L14.175 4.4625C14.6416 3.99584 15.191 3.7625 15.8229 3.7625C16.4549 3.7625 17.0041 3.99584 17.4709 4.4625L18.3166 5.30834L19.775 3.85C20.0084 3.61666 20.2854 3.5 20.6063 3.5C20.9271 3.5 21.2041 3.61666 21.4375 3.85L24.15 6.5625C24.3834 6.79584 24.5 7.07291 24.5 7.39375C24.5 7.71459 24.3834 7.99166 24.15 8.225L17.8209 14.5541ZM4.66666 24.5C4.33611 24.5 4.05903 24.3881 3.83541 24.1646C3.6118 23.941 3.5 23.6639 3.5 23.3334V21.0875C3.5 20.7764 3.55834 20.4799 3.675 20.1979C3.79166 19.916 3.95695 19.668 4.17084 19.4541L11.7833 11.8125L16.1875 16.1875L8.54584 23.8291C8.33195 24.043 8.08403 24.2084 7.80209 24.325C7.52014 24.4416 7.22361 24.5 6.9125 24.5H4.66666Z" fill="#DF2781"/>
</g>
</svg>
