<svg width="" height="" viewBox="0 0 1203 442" fill="none" xmlns="http://www.w3.org/2000/svg">
<g clip-path="url(#clip0_299_4295)">
<path d="M1202.59 310.591L765.703 441.238L680.897 157.647L1117.78 26.9995L1202.59 310.591Z" fill="black"/>
<rect width="29" height="29" transform="matrix(1 -6.54262e-05 -6.53805e-05 1 760.898 237.644)" fill="#E4007F"/>
<path d="M817.706 284.692L797.2 305.198L817.704 325.707" stroke="#E4007F" stroke-width="6.75928"/>
<path d="M843.691 280.676L823.185 301.182L843.689 321.69" stroke="#E4007F" stroke-width="6.75928"/>
<path d="M1041.64 200.417L1021.13 220.923L1041.63 241.432" stroke="#E4007F" stroke-width="6.75928"/>
<rect width="29" height="29" rx="14.5" transform="matrix(1 -6.54262e-05 -6.53805e-05 1 850.636 252.396)" fill="#E4007F"/>
<rect width="29" height="29" rx="14.5" transform="matrix(1 -6.54262e-05 -6.53805e-05 1 912.32 294.642)" fill="#E4007F"/>
<rect width="29" height="29" transform="matrix(1 -6.54262e-05 -6.53805e-05 1 1056.62 233.419)" fill="#E4007F"/>
<path d="M977.949 292.931L957.528 313.352L978.27 313.668L998.691 313.668L977.949 292.931Z" fill="#E4007F"/>
<path d="M977.69 292.868L957.269 272.447L978.011 272.131L998.432 272.131L977.69 292.868Z" fill="#E4007F"/>
</g>
<g clip-path="url(#clip1_299_4295)">
<path d="M770.285 130.648L333.402 0L248.595 283.591L685.479 414.239L770.285 130.648Z" fill="#E4007F"/>
<rect width="29" height="29" rx="14.5" transform="matrix(0.999999 -0.00123373 -0.00122908 0.999999 263.141 199.869)" fill="white"/>
<rect width="29" height="29" rx="14.5" transform="matrix(0.999999 -0.00123373 -0.00122908 0.999999 306.179 252.574)" fill="white"/>
<rect width="29" height="29" rx="14.5" transform="matrix(0.999999 -0.00123373 -0.00122908 0.999999 345.858 227.997)" fill="white"/>
<rect width="29" height="29" rx="14.5" transform="matrix(0.999999 -0.00123373 -0.00122908 0.999999 405.49 252.458)" fill="white"/>
<rect width="29" height="29" rx="14.5" transform="matrix(0.999999 -0.00123373 -0.00122908 0.999999 473.601 304.745)" fill="white"/>
<rect width="29" height="29" rx="14.5" transform="matrix(0.999999 -0.00123373 -0.00122908 0.999999 528.103 245.687)" fill="white"/>
<rect width="29" height="29" rx="14.5" transform="matrix(0.999999 -0.00123373 -0.00122908 0.999999 593.986 275.042)" fill="white"/>
<rect width="29" height="29" rx="14.5" transform="matrix(0.999999 -0.00123373 -0.00122908 0.999999 634.103 252.07)" fill="white"/>
<rect width="29" height="29" rx="14.5" transform="matrix(0.999999 -0.00123373 -0.00122908 0.999999 673.941 274.949)" fill="white"/>
<rect width="29" height="29" rx="14.5" transform="matrix(0.999999 -0.00123373 -0.00122908 0.999999 711.487 217.23)" fill="white"/>
</g>
<defs>
<clipPath id="clip0_299_4295">
<rect width="456" height="296" fill="white" transform="matrix(0.958078 -0.286508 -0.286508 -0.958078 765.703 441.238)"/>
</clipPath>
<clipPath id="clip1_299_4295">
<rect width="456" height="296" fill="white" transform="translate(333.402) rotate(16.649)"/>
</clipPath>
</defs>
</svg>
