<svg width="" height="" viewBox="0 0 632 111" fill="none" xmlns="http://www.w3.org/2000/svg">
<g clip-path="url(#clip0_521_4427)">
<g opacity="0.3">
<path d="M35.0355 26.998L0 26.9971L0.000978061 62.0226L35.0364 62.0236L35.0355 26.998Z" fill="#E4007F"/>
<path d="M79.18 74.4951L44.1445 74.4941L44.1455 109.52L79.181 109.521L79.18 74.4951Z" fill="#E4007F"/>
<path d="M169.133 17.9853L134.098 17.9844L134.099 53.0099L169.134 53.0109L169.133 17.9853Z" fill="#E4007F"/>
<path d="M243.817 48.5342L208.781 48.5332L208.782 83.5588L243.818 83.5597L243.817 48.5342Z" fill="#E4007F"/>
<path d="M299.885 71.2978L264.85 71.2969L264.851 106.322L299.886 106.323L299.885 71.2978Z" fill="#E4007F"/>
<path d="M368.742 29.001L333.707 29L333.708 64.0256L368.743 64.0265L368.742 29.001Z" fill="#E4007F"/>
<path d="M443.899 0.000962581L408.863 0L408.864 35.0256L443.9 35.0265L443.899 0.000962581Z" fill="#E4007F"/>
<path d="M528.075 50.6904L493.039 50.6895L493.04 85.715L528.075 85.716L528.075 50.6904Z" fill="#E4007F"/>
<path d="M571.426 75.0351L536.391 75.0342L536.392 110.06L571.427 110.061L571.426 75.0351Z" fill="#E4007F"/>
<path d="M631.711 16.0156L596.676 16.0146L596.677 51.0402L631.712 51.0412L631.711 16.0156Z" fill="#E4007F"/>
</g>
</g>
<defs>
<clipPath id="clip0_521_4427">
<rect width="632" height="111" fill="white"/>
</clipPath>
</defs>
</svg>
