<svg width="" height="" viewBox="0 0 661 422" fill="none" xmlns="http://www.w3.org/2000/svg">
<g opacity="0.3">
<rect width="35.0246" height="35.0366" transform="matrix(1.00031 2.7483e-05 2.79154e-05 0.999685 19.0782 183.128)" fill="#E4007F"/>
<rect width="35.0246" height="35.0366" transform="matrix(1.00031 2.7483e-05 2.79154e-05 0.999685 63.2218 230.625)" fill="#E4007F"/>
<rect width="35.0246" height="35.0366" transform="matrix(1.00031 2.7483e-05 2.79154e-05 0.999685 153.175 174.115)" fill="#E4007F"/>
<rect width="35.0246" height="35.0366" transform="matrix(1.00031 2.7483e-05 2.79154e-05 0.999685 227.859 204.664)" fill="#E4007F"/>
<rect width="35.0246" height="35.0366" transform="matrix(1.00031 2.7483e-05 2.79154e-05 0.999685 283.928 227.428)" fill="#E4007F"/>
<rect width="35.0246" height="35.0366" transform="matrix(1.00031 2.7483e-05 2.79154e-05 0.999685 352.786 185.131)" fill="#E4007F"/>
<rect width="35.0246" height="35.0366" transform="matrix(1.00031 2.7483e-05 2.79154e-05 0.999685 427.942 156.131)" fill="#E4007F"/>
<rect width="35.0246" height="35.0366" transform="matrix(1.00031 2.7483e-05 2.79154e-05 0.999685 512.117 206.82)" fill="#E4007F"/>
<rect width="35.0246" height="35.0366" transform="matrix(1.00031 2.7483e-05 2.79154e-05 0.999685 555.469 231.165)" fill="#E4007F"/>
<rect width="35.0246" height="35.0366" transform="matrix(1.00031 2.7483e-05 2.79154e-05 0.999685 615.753 172.146)" fill="#E4007F"/>
</g>
</svg>
