<svg width="" height="" viewBox="0 0 578 123" fill="none" xmlns="http://www.w3.org/2000/svg">
<g clip-path="url(#clip0_521_4439)">
<g opacity="0.3">
<path d="M35.0203 3.09244L0.00195312 3.09473L-0.000336216 38.113L35.018 38.1107L35.0203 3.09244Z" fill="#E4007F"/>
<path d="M52.2851 32.4844L27.5234 57.2461L52.2818 82.011L77.0435 57.2493L52.2851 32.4844Z" fill="#E4007F"/>
<path d="M169.728 99.2103C169.729 89.5433 161.89 81.7072 152.22 81.7078C142.55 81.7085 134.71 89.5456 134.71 99.2126L134.71 99.2236C134.709 108.891 142.548 116.727 152.218 116.726C161.888 116.726 169.727 108.888 169.728 99.2213L169.728 99.2103Z" fill="#E4007F"/>
<path d="M212.848 57.5163L177.83 57.5186L177.828 92.5368L212.846 92.5345L212.848 57.5163Z" fill="#E4007F"/>
<path d="M351.715 97.455L326.953 72.6934L302.188 97.4518L326.95 122.213L351.715 97.455Z" fill="#E4007F"/>
<path d="M413.283 55.2016C413.283 45.5346 405.445 37.6984 395.775 37.6991C386.105 37.6997 378.265 45.5368 378.264 55.2038L378.264 55.2148C378.264 64.8818 386.102 72.718 395.772 72.7174C405.443 72.7167 413.282 64.8796 413.283 55.2126L413.283 55.2016Z" fill="#E4007F"/>
<path d="M449.147 21.0566L469.675 41.5626L448.987 41.7166L428.617 41.5596L449.147 21.0566Z" fill="#E4007F"/>
<path d="M449.149 20.661L469.676 0.154999L448.988 0L428.619 0.158005L449.149 20.661Z" fill="#E4007F"/>
<path d="M110.076 24.085L130.278 44.287L109.759 44.599H89.5566L110.076 24.085Z" fill="#E4007F"/>
<path d="M110.05 23.8665L130.252 3.66454L109.732 3.35254H89.5312L110.05 23.8665Z" fill="#E4007F"/>
<path d="M544.415 9.6979L509.396 9.7002L509.394 44.7185L544.412 44.7162L544.415 9.6979Z" fill="#E4007F"/>
<path d="M577.456 43.611L542.438 43.6133L542.435 78.6315L577.454 78.6292L577.456 43.611Z" fill="#E4007F"/>
</g>
</g>
<defs>
<clipPath id="clip0_521_4439">
<rect width="578" height="123" fill="white"/>
</clipPath>
</defs>
</svg>
