<svg width="129" height="54" viewBox="0 0 129 54" fill="none" xmlns="http://www.w3.org/2000/svg">
<g opacity="0.3">
<rect width="7.32504" height="7.32643" transform="matrix(0.958565 -0.285975 0.285946 0.957917 0.0157938 40.0039)" fill="#E4007F"/>
<rect width="7.32504" height="7.32643" transform="matrix(0.958565 -0.285975 0.285946 0.957917 11.7033 46.8828)" fill="#E4007F"/>
<rect width="7.32504" height="7.32643" transform="matrix(0.958565 -0.285975 0.285946 0.957917 26.3512 30.1777)" fill="#E4007F"/>
<rect width="7.32504" height="7.32643" transform="matrix(0.958565 -0.285975 0.285946 0.957917 43.1457 31.833)" fill="#E4007F"/>
<rect width="7.32504" height="7.32643" transform="matrix(0.958565 -0.285975 0.285946 0.957917 55.7438 33.042)" fill="#E4007F"/>
<rect width="7.32504" height="7.32643" transform="matrix(0.958565 -0.285975 0.285946 0.957917 67.0138 20.4473)" fill="#E4007F"/>
<rect width="7.32504" height="7.32643" transform="matrix(0.958565 -0.285975 0.285946 0.957917 80.3415 10.1406)" fill="#E4007F"/>
<rect width="7.32505" height="7.32643" transform="matrix(0.958565 -0.285975 0.285946 0.957917 100.243 15.2646)" fill="#E4007F"/>
<rect width="7.32505" height="7.32643" transform="matrix(0.958565 -0.285975 0.285946 0.957917 110.387 17.5508)" fill="#E4007F"/>
<rect width="7.32505" height="7.32643" transform="matrix(0.958565 -0.285975 0.285946 0.957917 118.939 2.11816)" fill="#E4007F"/>
</g>
</svg>
