<svg width="" height="" viewBox="0 0 561 224" fill="none" xmlns="http://www.w3.org/2000/svg">
<g opacity="0.3">
<rect width="35" height="35" rx="17.5" transform="matrix(0.958059 -0.286571 0.286446 0.958097 0 142.377)" fill="#E4007F"/>
<rect width="35" height="35" rx="17.5" transform="matrix(0.958059 -0.286571 0.286446 0.958097 66.958 187.547)" fill="#E4007F"/>
<rect width="35" height="35" rx="17.5" transform="matrix(0.958059 -0.286571 0.286446 0.958097 103.773 146.223)" fill="#E4007F"/>
<rect width="35" height="35" rx="17.5" transform="matrix(0.958059 -0.286571 0.286446 0.958097 180.011 153.739)" fill="#E4007F"/>
<rect width="35" height="35" rx="17.5" transform="matrix(0.958059 -0.286571 0.286446 0.958097 275.379 189.933)" fill="#E4007F"/>
<rect width="35" height="35" rx="17.5" transform="matrix(0.958059 -0.286571 0.286446 0.958097 317.334 104.483)" fill="#E4007F"/>
<rect width="35" height="35" rx="17.5" transform="matrix(0.958059 -0.286571 0.286446 0.958097 402.356 115.43)" fill="#E4007F"/>
<rect width="35" height="35" rx="17.5" transform="matrix(0.958059 -0.286571 0.286446 0.958097 440.216 75.7783)" fill="#E4007F"/>
<rect width="35" height="35" rx="17.5" transform="matrix(0.958059 -0.286571 0.286446 0.958097 493.374 88.2109)" fill="#E4007F"/>
<rect width="35" height="35" rx="17.5" transform="matrix(0.958059 -0.286571 0.286446 0.958097 516.476 10.0293)" fill="#E4007F"/>
</g>
</svg>
