<svg width="615" height="377" viewBox="0 0 615 377" fill="none" xmlns="http://www.w3.org/2000/svg">
<g opacity="0.3">
<rect width="35.0127" height="35.0238" transform="matrix(1.00016 -6.54198e-05 -6.53653e-05 0.999843 20.1667 144.679)" fill="#E4007F"/>
<rect width="35.0099" height="35.0266" transform="matrix(0.707276 -0.707276 0.706845 0.70703 47.6892 198.83)" fill="#E4007F"/>
<rect width="35.0127" height="35.0238" rx="17.5064" transform="matrix(1.00016 -6.54198e-05 -6.53653e-05 0.999843 154.876 223.293)" fill="#E4007F"/>
<rect width="35.0127" height="35.0237" transform="matrix(1.00016 -6.54198e-05 -6.53653e-05 0.999843 197.996 199.103)" fill="#E4007F"/>
<rect width="35.0266" height="35.0099" transform="matrix(0.706938 0.706938 -0.707368 0.707183 347.119 214.277)" fill="#E4007F"/>
<rect width="35.0127" height="35.0238" rx="17.5064" transform="matrix(1.00016 -6.54198e-05 -6.53653e-05 0.999843 398.431 179.284)" fill="#E4007F"/>
<path d="M469.313 162.641L489.841 183.147L469.153 183.301L448.783 183.144L469.313 162.641Z" fill="#E4007F"/>
<path d="M469.314 162.245L489.841 141.739L469.153 141.584L448.784 141.742L469.314 162.245Z" fill="#E4007F"/>
<path d="M130.241 165.669L150.443 185.871L129.924 186.183L109.722 186.183L130.241 165.669Z" fill="#E4007F"/>
<path d="M130.216 165.451L150.418 145.249L129.898 144.937L109.697 144.937L130.216 165.451Z" fill="#E4007F"/>
<rect width="35.0127" height="35.0238" transform="matrix(1.00016 -6.54198e-05 -6.53653e-05 0.999843 529.562 151.284)" fill="#E4007F"/>
<rect width="35.0127" height="35.0237" transform="matrix(1.00016 -6.54198e-05 -6.53653e-05 0.999843 562.6 185.197)" fill="#E4007F"/>
</g>
</svg>
