<svg width="269" height="99" viewBox="0 0 269 99" fill="none" xmlns="http://www.w3.org/2000/svg">
<g clip-path="url(#clip0_299_6291)">
<path d="M268.57 35.1443L171.027 5.97461L152.092 69.2918L249.635 98.4615L268.57 35.1443Z" fill="black"/>
<rect width="6.47481" height="6.47481" transform="matrix(1 6.54262e-05 -6.53805e-05 -1 169.954 51.4307)" fill="#E4007F"/>
<path d="M182.637 40.927L178.059 36.3486L182.637 31.7696" stroke="#E4007F" stroke-width="1.50914"/>
<path d="M188.439 41.8235L183.861 37.2451L188.439 32.6661" stroke="#E4007F" stroke-width="1.50914"/>
<path d="M232.634 59.7424L228.056 55.1641L232.633 50.5851" stroke="#E4007F" stroke-width="1.50914"/>
<rect width="6.47481" height="6.47481" rx="3.23741" transform="matrix(1 6.54262e-05 -6.53805e-05 -1 189.99 48.1377)" fill="#E4007F"/>
<rect width="6.47481" height="6.47481" rx="3.23741" transform="matrix(1 6.54262e-05 -6.53805e-05 -1 203.762 38.7051)" fill="#E4007F"/>
<rect width="6.47481" height="6.47481" transform="matrix(1 6.54262e-05 -6.53805e-05 -1 235.979 52.374)" fill="#E4007F"/>
<path d="M218.415 39.0869L213.856 34.5275L218.487 34.457L223.046 34.457L218.415 39.0869Z" fill="#E4007F"/>
<path d="M218.357 39.1016L213.798 43.661L218.429 43.7315L222.989 43.7315L218.357 39.1016Z" fill="#E4007F"/>
</g>
<g clip-path="url(#clip1_299_6291)">
<path d="M64.0784 29.1697L161.621 0L180.556 63.3172L83.013 92.4869L64.0784 29.1697Z" fill="#E4007F"/>
<rect width="6.47481" height="6.47481" transform="matrix(-1 -6.54262e-05 6.53805e-05 1 176.406 41.6064)" fill="white"/>
<rect width="6.47481" height="6.47481" transform="matrix(-1 -6.54262e-05 6.53805e-05 1 166.574 52.2129)" fill="white"/>
<rect width="6.47481" height="6.47481" transform="matrix(-1 -6.54262e-05 6.53805e-05 1 157.471 44.2822)" fill="white"/>
<rect width="6.47481" height="6.47481" transform="matrix(-1 -6.54262e-05 6.53805e-05 1 145.605 56.6299)" fill="white"/>
<rect width="6.47481" height="6.47481" transform="matrix(-1 -6.54262e-05 6.53805e-05 1 133.113 61.7119)" fill="white"/>
<rect width="6.47481" height="6.47481" transform="matrix(-1 -6.54262e-05 6.53805e-05 1 122.808 52.4004)" fill="white"/>
<rect width="6.47481" height="6.47481" transform="matrix(-1 -6.54262e-05 6.53805e-05 1 110.71 58.5996)" fill="white"/>
<rect width="6.47481" height="6.47481" transform="matrix(-1 -6.54262e-05 6.53805e-05 1 100.784 57.8818)" fill="white"/>
<rect width="6.47481" height="6.47481" transform="matrix(-1 -6.54262e-05 6.53805e-05 1 91.1255 63.3174)" fill="white"/>
<rect width="6.47481" height="6.47481" transform="matrix(-1 -6.54262e-05 6.53805e-05 1 77.6953 50.1367)" fill="white"/>
</g>
<defs>
<clipPath id="clip0_299_6291">
<rect width="101.811" height="66.0878" fill="white" transform="translate(171.027 5.97461) rotate(16.649)"/>
</clipPath>
<clipPath id="clip1_299_6291">
<rect width="101.811" height="66.0878" fill="white" transform="matrix(-0.958078 0.286508 0.286508 0.958078 161.621 0)"/>
</clipPath>
</defs>
</svg>
