<svg width="" height="" viewBox="0 0 128 52" fill="none" xmlns="http://www.w3.org/2000/svg">
<g opacity="0.3">
<rect width="7.99953" height="7.99953" rx="3.99976" transform="matrix(0.958059 -0.286571 0.286446 0.958097 0 32.541)" fill="#E4007F"/>
<rect width="7.99953" height="7.99953" rx="3.99976" transform="matrix(0.958059 -0.286571 0.286446 0.958097 15.3037 42.8662)" fill="#E4007F"/>
<rect width="7.99953" height="7.99953" rx="3.99976" transform="matrix(0.958059 -0.286571 0.286446 0.958097 23.7183 33.4199)" fill="#E4007F"/>
<rect width="7.99953" height="7.99953" rx="3.99976" transform="matrix(0.958059 -0.286571 0.286446 0.958097 41.1431 35.1387)" fill="#E4007F"/>
<rect width="7.99953" height="7.99953" rx="3.99976" transform="matrix(0.958059 -0.286571 0.286446 0.958097 62.9399 43.4102)" fill="#E4007F"/>
<rect width="7.99953" height="7.99953" rx="3.99976" transform="matrix(0.958059 -0.286571 0.286446 0.958097 72.5293 23.8809)" fill="#E4007F"/>
<rect width="7.99953" height="7.99953" rx="3.99976" transform="matrix(0.958059 -0.286571 0.286446 0.958097 91.9619 26.3828)" fill="#E4007F"/>
<rect width="7.99953" height="7.99953" rx="3.99976" transform="matrix(0.958059 -0.286571 0.286446 0.958097 100.615 17.3203)" fill="#E4007F"/>
<rect width="7.99953" height="7.99953" rx="3.99976" transform="matrix(0.958059 -0.286571 0.286446 0.958097 112.765 20.1621)" fill="#E4007F"/>
<rect width="7.99953" height="7.99953" rx="3.99976" transform="matrix(0.958059 -0.286571 0.286446 0.958097 118.044 2.29199)" fill="#E4007F"/>
</g>
</svg>
