<svg width="128" height="50" viewBox="0 0 128 50" fill="none" xmlns="http://www.w3.org/2000/svg">
<g opacity="0.3">
<rect width="7.7943" height="7.79565" transform="matrix(0.958305 -0.286297 0.286171 0.958014 0.00878906 33.9102)" fill="#E4007F"/>
<rect width="7.79464" height="7.79775" transform="matrix(0.475184 -0.880158 0.879618 0.475177 9.33008 43.7061)" fill="#E4007F"/>
<rect width="7.7943" height="7.79565" rx="3.89715" transform="matrix(0.958305 -0.286297 0.286171 0.958014 33.752 42.0947)" fill="#E4007F"/>
<rect width="7.7943" height="7.79565" transform="matrix(0.958305 -0.286297 0.286171 0.958014 41.4082 34.1875)" fill="#E4007F"/>
<rect width="7.79776" height="7.79464" transform="matrix(0.879681 0.475062 -0.475299 0.880096 74.1836 27.9209)" fill="#E4007F"/>
<rect width="7.7943" height="7.79565" rx="3.89715" transform="matrix(0.958305 -0.286297 0.286171 0.958014 82.8984 17.1885)" fill="#E4007F"/>
<path d="M96.958 8.83203L102.643 11.898L98.2403 13.2492L93.8854 14.5136L96.958 8.83203Z" fill="#E4007F"/>
<path d="M96.9326 8.74707L100.005 3.06506L95.5819 4.3503L91.247 5.68184L96.9326 8.74707Z" fill="#E4007F"/>
<path d="M24.8257 31.3721L30.4221 34.3943L26.0651 35.7686L21.756 37.0561L24.8257 31.3721Z" fill="#E4007F"/>
<path d="M24.8066 31.3281L27.8285 25.7309L23.4317 26.972L19.1226 28.2595L24.8066 31.3281Z" fill="#E4007F"/>
<rect width="7.79431" height="7.79565" transform="matrix(0.958305 -0.286297 0.286171 0.958014 109.085 2.86035)" fill="#E4007F"/>
<rect width="7.7943" height="7.79565" transform="matrix(0.958305 -0.286297 0.286171 0.958014 118.293 7.98828)" fill="#E4007F"/>
</g>
</svg>
