<svg width="" height="" viewBox="0 0 102 34" fill="none" xmlns="http://www.w3.org/2000/svg">
<g clip-path="url(#clip0_189_2798)">
<path d="M28.5208 18.5899C29.5721 18.9568 28.9791 22.8705 29.1408 24.0018C29.4643 24.0018 29.7339 23.6043 29.9226 23.3291C33.3461 18.804 37.7132 7.64389 40.8403 1.89568C41.1368 1.34532 41.3525 0.703237 41.4333 0.0611511L42.9699 1.2536L50.8414 16.7248L59.953 0L71.8411 23.1151L72.9733 23.8489L72.9194 1.52878L73.836 0.947842C80.4944 1.22302 87.1798 1.34532 93.8652 1.2536C95.3748 1.2536 96.7496 1.19245 98.2323 1.19245C99.3106 1.19245 100.793 0.27518 101.602 1.43705V16.0827L87.2876 16.1439V18.4065L101.629 18.3453V33.6637L60.6269 33.786C60.9234 31.554 62.8374 30.6061 61.4087 28.3741L58.039 33.786H44.2908C44.9647 31.9209 46.7709 30.1781 44.8839 28.4353L41.7029 33.8471L0.673932 33.9694L0.0808718 33.2968L0 1.74281L29.0869 1.65108V16.2968L14.9882 16.3579C14.2334 16.3579 14.2334 18.6205 14.9882 18.6205H28.5477L28.5208 18.5899Z" fill="#981A45"/>
</g>
<defs>
<clipPath id="clip0_189_2798">
<rect width="101.629" height="33.9694" fill="white"/>
</clipPath>
</defs>
</svg>
