<svg width="1396" height="355" viewBox="0 0 1396 355" fill="none" xmlns="http://www.w3.org/2000/svg">
<g clip-path="url(#clip0_189_2832)">
<path d="M46.651 178.622L46.5114 61.0312L0.0634766 61.0696V42.434L113.173 42.3188V60.9545L66.7651 61.012L66.9047 178.603H46.6311L46.651 178.622Z" fill="#231815"/>
<path d="M114.211 178.564L114.071 42.3379H132.192L132.272 115.825H134.704L134.764 178.545H114.211V178.564ZM187.79 178.487L187.73 128.261C187.73 124.289 187.391 120.201 186.694 115.998C186.016 111.814 184.72 107.918 182.806 104.329C180.893 100.74 178.221 97.8417 174.753 95.6346C171.284 93.4275 166.779 92.3336 161.217 92.3336C157.589 92.3336 154.18 92.9285 150.951 94.0992C147.721 95.27 144.89 97.1508 142.478 99.7225C140.046 102.313 138.152 105.73 136.777 109.952C135.382 114.174 134.704 119.318 134.704 125.383L122.105 120.757C122.105 111.487 123.859 103.292 127.408 96.1912C130.956 89.0901 136.059 83.5435 142.718 79.5707C149.376 75.598 157.409 73.602 166.858 73.5828C174.095 73.5828 180.175 74.7151 185.099 76.9798C190.003 79.2445 194.01 82.2193 197.08 85.9042C200.15 89.5891 202.502 93.6194 204.117 97.9569C205.731 102.313 206.828 106.574 207.426 110.72C208.004 114.884 208.303 118.55 208.303 121.698L208.363 178.468H187.81L187.79 178.487Z" fill="#231815"/>
<path d="M265.455 181.232C255.049 181.232 245.919 179.025 238.065 174.591C230.211 170.158 224.091 163.959 219.725 155.975C215.359 148.01 213.166 138.759 213.146 128.223C213.146 117.053 215.28 107.38 219.565 99.1659C223.851 90.9708 229.852 84.6182 237.527 80.1272C245.222 75.6363 254.172 73.3908 264.379 73.3716C275.044 73.3716 284.134 75.7706 291.63 80.5879C299.125 85.4051 304.747 92.2567 308.474 101.162C312.202 110.048 313.677 120.623 312.92 132.848H292.666V125.689C292.527 113.829 290.214 105.058 285.709 99.3962C281.204 93.7153 274.366 90.8941 265.196 90.9132C255.049 90.9132 247.434 94.0416 242.331 100.298C237.228 106.555 234.696 115.575 234.716 127.359C234.716 138.587 237.287 147.281 242.391 153.422C247.514 159.564 254.87 162.634 264.498 162.615C270.838 162.615 276.3 161.195 280.925 158.393C285.55 155.591 289.138 151.561 291.709 146.321L311.584 152.443C307.518 161.598 301.358 168.68 293.105 173.708C284.832 178.718 275.622 181.251 265.495 181.251L265.455 181.232ZM228.078 132.944V117.514L302.813 117.437V132.867L228.078 132.944Z" fill="#231815"/>
<path d="M57.4965 354C47.0308 354 37.9405 351.716 30.2457 347.129C22.5509 342.543 16.6104 336.19 12.444 328.072C8.2577 319.973 6.18449 310.626 6.16455 300.032C6.16455 289.38 8.27763 279.995 12.5237 271.877C16.7698 263.759 22.7503 257.464 30.4451 252.934C38.1399 248.424 47.1105 246.14 57.3769 246.14C67.8427 246.14 76.9329 248.424 84.6277 253.03C92.3225 257.617 98.283 263.951 102.489 272.03C106.695 280.091 108.809 289.399 108.829 299.936C108.829 310.588 106.735 319.992 102.509 328.091C98.283 336.19 92.3225 342.543 84.6477 347.129C76.9528 351.697 67.9224 354 57.4965 354.019V354ZM57.4766 335.365C67.5038 335.365 74.9793 332.044 79.9032 325.461C84.847 318.879 87.299 310.357 87.279 299.955C87.279 289.303 84.7673 280.782 79.7437 274.372C74.7202 267.981 67.2845 264.776 57.3769 264.795C50.5991 264.795 44.9974 266.311 40.6118 269.305C36.2262 272.299 32.9569 276.445 30.8438 281.703C28.7108 286.962 27.6542 293.084 27.6542 300.013C27.6542 310.741 30.1859 319.32 35.2494 325.749C40.2928 332.179 47.7086 335.384 57.4567 335.365H57.4766Z" fill="#231815"/>
<path d="M115.566 351.102L115.446 248.942H133.567L133.607 278.441H136.039L136.119 351.083H115.566V351.102ZM189.145 351.025L189.085 300.799C189.085 296.827 188.746 292.739 188.049 288.555C187.371 284.352 186.075 280.475 184.161 276.867C182.248 273.278 179.556 270.38 176.108 268.173C172.639 265.966 168.134 264.872 162.572 264.872C158.944 264.872 155.535 265.467 152.306 266.637C149.076 267.808 146.245 269.689 143.833 272.28C141.401 274.871 139.508 278.268 138.132 282.509C136.737 286.732 136.059 291.875 136.059 297.94L123.46 293.315C123.46 284.045 125.214 275.85 128.763 268.749C132.311 261.647 137.414 256.101 144.073 252.128C150.731 248.155 158.764 246.159 168.214 246.14C175.45 246.14 181.53 247.253 186.454 249.518C191.358 251.783 195.365 254.757 198.435 258.442C201.505 262.127 203.857 266.138 205.472 270.495C207.086 274.852 208.203 279.093 208.781 283.258C209.359 287.423 209.658 291.069 209.658 294.236L209.718 351.006H189.165L189.145 351.025Z" fill="#231815"/>
<path d="M232.862 264.718V248.827L304.388 248.75V264.641L232.862 264.718ZM304.508 350.91C297.909 352.177 291.451 352.714 285.111 352.541C278.772 352.35 273.131 351.16 268.147 348.972C263.163 346.765 259.415 343.31 256.884 338.589C254.611 334.366 253.395 330.067 253.236 325.672C253.076 321.277 252.996 316.326 252.976 310.779L252.877 220.422H273.23L273.33 309.8C273.33 313.908 273.39 317.477 273.489 320.49C273.589 323.504 274.247 326.056 275.483 328.148C277.815 332.063 281.523 334.27 286.586 334.808C291.67 335.326 297.63 335.115 304.488 334.174V350.929L304.508 350.91Z" fill="#231815"/>
<path d="M311.884 350.91L311.745 214.684H329.865L329.945 288.171H332.377L332.437 350.891H311.884V350.91ZM385.463 350.834L385.404 300.608C385.404 296.635 385.065 292.547 384.367 288.363C383.689 284.16 382.393 280.264 380.48 276.675C378.566 273.086 375.875 270.188 372.426 267.981C368.957 265.774 364.452 264.68 358.89 264.68C355.262 264.68 351.853 265.275 348.624 266.445C345.394 267.616 342.564 269.497 340.152 272.088C337.72 274.679 335.826 278.076 334.45 282.317C333.055 286.54 332.377 291.683 332.377 297.748L319.778 293.123C319.778 283.853 321.533 275.677 325.081 268.557C328.629 261.455 333.733 255.909 340.391 251.936C347.049 247.963 355.083 245.967 364.532 245.948C371.768 245.948 377.848 247.061 382.772 249.326C387.696 251.591 391.683 254.565 394.753 258.25C397.823 261.935 400.175 265.946 401.79 270.303C403.405 274.66 404.521 278.901 405.099 283.066C405.697 287.231 405.976 290.877 405.976 294.044L406.036 350.814H385.483L385.463 350.834Z" fill="#231815"/>
<path d="M463.109 353.597C452.703 353.597 443.573 351.39 435.719 346.956C427.864 342.523 421.744 336.324 417.379 328.34C413.013 320.375 410.82 311.105 410.8 300.588C410.8 289.418 412.933 279.745 417.219 271.531C421.505 263.336 427.486 256.983 435.181 252.492C442.855 248.001 451.806 245.756 462.033 245.756C472.698 245.756 481.768 248.155 489.283 252.972C496.779 257.789 502.4 264.641 506.128 273.527C509.856 282.413 511.331 292.988 510.574 305.213H490.3V298.035C490.161 286.175 487.848 277.404 483.343 271.742C478.838 266.061 472.02 263.24 462.83 263.259C452.683 263.259 445.048 266.407 439.965 272.644C434.862 278.882 432.33 287.921 432.33 299.705C432.33 310.933 434.901 319.627 440.025 325.768C445.128 331.91 452.504 334.98 462.132 334.961C468.472 334.961 473.934 333.541 478.559 330.739C483.183 327.918 486.772 323.906 489.343 318.667L509.218 324.789C505.151 333.944 498.992 341.026 490.719 346.054C482.446 351.083 473.236 353.597 463.089 353.597H463.109ZM425.731 305.29V289.86L500.447 289.783V305.213L425.731 305.29Z" fill="#231815"/>
<path d="M599.123 353.463C589.754 353.463 581.122 351.889 573.248 348.703C565.354 345.536 558.496 340.892 552.675 334.769C546.854 328.666 542.329 321.22 539.08 312.449C535.83 303.678 534.216 293.717 534.196 282.567C534.196 267.865 536.907 255.237 542.389 244.662C547.871 234.087 555.486 225.95 565.234 220.23C574.982 214.511 586.225 211.652 598.964 211.632C615.37 211.632 628.487 215.317 638.295 222.745C648.103 230.172 654.781 240.459 658.349 253.567L637.797 257.175C634.946 249.038 630.341 242.551 624.002 237.695C617.663 232.84 609.709 230.383 600.14 230.345C590.252 230.287 582.019 232.437 575.481 236.812C568.922 241.169 563.998 247.272 560.709 255.141C557.42 262.991 555.745 272.126 555.685 282.528C555.626 292.93 557.26 302.028 560.569 309.82C563.879 317.612 568.842 323.676 575.481 328.014C582.099 332.351 590.352 334.558 600.26 334.616C608.213 334.731 615.051 333.292 620.752 330.298C626.474 327.304 630.999 322.889 634.368 317.093C637.717 311.278 639.87 304.158 640.847 295.713H613.715V279.841L662.376 279.784C662.516 280.916 662.615 282.413 662.675 284.275C662.735 286.136 662.775 287.307 662.775 287.825C662.775 300.435 660.303 311.7 655.339 321.604C650.375 331.507 643.159 339.28 633.65 344.941C624.161 350.603 612.659 353.443 599.143 353.443L599.123 353.463Z" fill="#231815"/>
<path d="M667.66 350.546L667.54 248.366H685.581L685.601 273.124L683.069 269.919C684.365 266.637 686.04 263.624 688.093 260.88C690.166 258.135 692.558 255.87 695.269 254.105C697.921 252.205 700.871 250.746 704.14 249.691C707.39 248.654 710.739 248.021 714.167 247.791C717.596 247.56 720.885 247.733 724.055 248.309V266.848C720.646 265.966 716.859 265.716 712.692 266.1C708.526 266.484 704.698 267.789 701.21 269.996C697.921 272.088 695.329 274.602 693.415 277.577C691.522 280.552 690.146 283.834 689.309 287.461C688.472 291.088 688.053 294.927 688.053 298.957L688.113 350.526H667.66V350.546Z" fill="#231815"/>
<path d="M773.513 353.271C763.047 353.271 753.957 350.987 746.262 346.4C738.567 341.813 732.627 335.46 728.441 327.361C724.274 319.262 722.181 309.915 722.161 299.321C722.161 288.67 724.274 279.285 728.54 271.166C732.786 263.048 738.767 256.734 746.462 252.224C754.156 247.714 763.127 245.43 773.393 245.43C783.859 245.43 792.949 247.714 800.644 252.32C808.339 256.907 814.3 263.24 818.506 271.32C822.712 279.4 824.825 288.689 824.825 299.225C824.825 309.877 822.732 319.262 818.506 327.38C814.28 335.479 808.319 341.832 800.644 346.419C792.949 351.006 783.899 353.29 773.493 353.309L773.513 353.271ZM773.493 334.635C783.52 334.635 790.996 331.334 795.92 324.732C800.864 318.13 803.315 309.628 803.296 299.225C803.296 288.574 800.784 280.033 795.76 273.642C790.737 267.251 783.301 264.046 773.393 264.065C766.616 264.065 761.014 265.581 756.628 268.575C752.243 271.569 748.973 275.715 746.86 280.974C744.747 286.232 743.671 292.335 743.671 299.283C743.671 310.011 746.222 318.59 751.266 325.02C756.309 331.449 763.725 334.654 773.473 334.635H773.493Z" fill="#231815"/>
<path d="M871.133 353.079C863.897 353.079 857.817 351.966 852.913 349.701C848.009 347.437 844.002 344.462 840.932 340.777C837.862 337.092 835.51 333.081 833.895 328.724C832.28 324.387 831.184 320.126 830.586 315.961C829.988 311.797 829.709 308.15 829.709 304.983L829.649 248.232H850.202L850.261 298.439C850.261 302.412 850.62 306.5 851.298 310.683C851.976 314.887 853.292 318.783 855.185 322.371C857.099 325.96 859.79 328.858 863.239 331.066C866.688 333.273 871.213 334.367 876.755 334.367C880.383 334.367 883.792 333.772 887.041 332.601C890.271 331.43 893.101 329.549 895.513 326.958C897.945 324.387 899.839 320.97 901.215 316.748C902.61 312.526 903.288 307.382 903.288 301.318L915.887 305.943C915.887 315.213 914.132 323.389 910.584 330.49C907.036 337.591 901.932 343.137 895.274 347.11C888.616 351.102 880.582 353.079 871.153 353.098L871.133 353.079ZM905.74 350.315L905.7 320.798H903.268L903.188 248.155H923.641L923.761 350.296H905.72L905.74 350.315Z" fill="#231815"/>
<path d="M936.28 350.277L936.161 248.097H954.301L954.341 277.596H956.753L956.833 350.257H936.28V350.277ZM1009.86 350.2L1009.8 299.974C1009.8 296.001 1009.46 291.913 1008.76 287.729C1008.09 283.526 1006.79 279.649 1004.88 276.041C1002.96 272.452 1000.27 269.554 996.822 267.347C993.353 265.14 988.848 264.046 983.286 264.046C979.658 264.046 976.249 264.641 973.02 265.812C969.791 266.982 966.96 268.863 964.548 271.454C962.136 274.045 960.222 277.442 958.846 281.684C957.451 285.906 956.753 291.049 956.773 297.095L944.174 292.47C944.174 283.2 945.929 275.024 949.477 267.923C953.025 260.822 958.129 255.275 964.787 251.302C971.425 247.33 979.479 245.334 988.928 245.314C996.164 245.314 1002.24 246.428 1007.17 248.692C1012.07 250.957 1016.06 253.932 1019.15 257.617C1022.22 261.302 1024.57 265.313 1026.19 269.669C1027.8 274.026 1028.9 278.267 1029.5 282.432C1030.07 286.597 1030.37 290.243 1030.37 293.41L1030.43 350.181H1009.88L1009.86 350.2Z" fill="#231815"/>
<path d="M1082.66 352.964C1072.89 352.964 1064.48 350.622 1057.4 345.882C1050.31 341.161 1044.84 334.712 1041 326.555C1037.13 318.399 1035.22 309.206 1035.2 298.976C1035.2 288.708 1037.11 279.515 1040.98 271.397C1044.84 263.298 1050.35 256.888 1057.48 252.166C1064.62 247.464 1073.09 245.104 1082.92 245.084C1092.81 245.084 1101.14 247.407 1107.88 252.109C1114.64 256.811 1119.76 263.221 1123.23 271.339C1126.7 279.477 1128.43 288.651 1128.45 298.861C1128.45 309.071 1126.74 318.264 1123.25 326.383C1119.76 334.52 1114.64 340.988 1107.86 345.747C1101.08 350.526 1092.67 352.906 1082.66 352.925V352.964ZM1085.47 335.077C1092.13 335.077 1097.55 333.522 1101.74 330.413C1105.94 327.323 1109.01 323.062 1110.93 317.631C1112.86 312.2 1113.82 305.962 1113.82 298.899C1113.82 291.837 1112.82 285.599 1110.85 280.168C1108.88 274.736 1105.83 270.514 1101.72 267.501C1097.61 264.469 1092.39 262.972 1086.05 262.972C1079.33 262.972 1073.81 264.603 1069.48 267.808C1065.16 271.032 1061.95 275.351 1059.86 280.782C1057.76 286.213 1056.73 292.259 1056.73 298.957C1056.73 305.713 1057.78 311.816 1059.9 317.266C1061.99 322.717 1065.18 327.054 1069.4 330.259C1073.63 333.464 1078.99 335.077 1085.47 335.057V335.077ZM1113.88 350.104L1113.8 276.598H1111.47L1111.39 213.878H1131.76L1131.9 350.085H1113.86L1113.88 350.104Z" fill="#231815"/>
<path d="M891.068 186.663C881.061 186.663 872.01 184.993 863.977 181.635C855.923 178.257 849.305 173.44 844.082 167.183C838.879 160.907 835.49 153.461 833.935 144.824L855.066 141.677C857.199 150.006 861.664 156.474 868.462 161.099C875.24 165.724 883.174 168.028 892.224 168.028C897.846 168.028 903.009 167.164 907.734 165.417C912.438 163.671 916.246 161.176 919.116 157.932C921.987 154.689 923.422 150.793 923.422 146.244C923.422 143.788 922.984 141.6 922.106 139.719C921.229 137.838 920.033 136.188 918.518 134.767C917.003 133.347 915.149 132.119 912.996 131.083C910.823 130.046 908.451 129.144 905.88 128.396L870.097 118.109C866.608 117.111 863.04 115.806 859.432 114.193C855.803 112.581 852.494 110.489 849.484 107.86C846.474 105.25 844.022 102.006 842.148 98.1296C840.254 94.2528 839.317 89.5507 839.317 83.9849C839.317 75.5979 841.51 68.4776 845.936 62.6432C850.361 56.8088 856.342 52.3754 863.897 49.3814C871.452 46.3682 879.925 44.8712 889.294 44.8521C898.723 44.9672 907.175 46.5985 914.651 49.7461C922.126 52.8936 928.326 57.4037 933.27 63.2957C938.214 69.1877 941.643 76.3272 943.516 84.7142L921.788 88.3224C920.811 83.2172 918.737 78.8222 915.568 75.1373C912.398 71.4524 908.511 68.612 903.926 66.6352C899.341 64.6392 894.357 63.622 888.995 63.5644C883.832 63.4493 879.087 64.217 874.801 65.8483C870.495 67.4988 867.087 69.8019 864.535 72.7575C861.983 75.7323 860.707 79.1293 860.727 82.9677C860.727 86.7486 861.864 89.8194 864.136 92.1416C866.389 94.4831 869.2 96.3255 872.529 97.669C875.858 99.0124 879.167 100.145 882.476 101.008L908.272 108.071C911.501 108.954 915.169 110.125 919.276 111.602C923.382 113.08 927.349 115.134 931.197 117.782C935.044 120.431 938.234 123.943 940.765 128.319C943.297 132.714 944.553 138.203 944.553 144.824C944.553 151.695 943.158 157.741 940.307 162.942C937.456 168.143 933.569 172.499 928.645 176.011C923.701 179.524 918 182.153 911.541 183.919C905.082 185.684 898.265 186.586 891.088 186.586L891.068 186.663Z" fill="#231815"/>
<path d="M950.593 183.765L950.534 47.5391H971.086L971.186 130.776L1012.23 81.5476H1038.03L994.649 132.656L1042.59 183.688H1015.06L971.186 134.576L971.246 183.765H950.593Z" fill="#231815"/>
<path d="M1084.18 186.471C1073.77 186.471 1064.64 184.264 1056.79 179.831C1048.93 175.398 1042.81 169.179 1038.45 161.215C1034.08 153.25 1031.89 143.999 1031.87 133.463C1031.87 122.293 1034 112.62 1038.29 104.406C1042.57 96.2106 1048.55 89.858 1056.25 85.367C1063.92 80.876 1072.87 78.6305 1083.08 78.6113C1093.74 78.6113 1102.83 81.0104 1110.33 85.8276C1117.83 90.6256 1123.45 97.4964 1127.18 106.382C1130.9 115.268 1132.38 125.843 1131.62 138.069H1111.35V130.91C1111.21 119.049 1108.89 110.278 1104.39 104.617C1099.88 98.9359 1093.05 96.1146 1083.88 96.1338C1073.73 96.1338 1066.1 99.2813 1061.01 105.519C1055.91 111.756 1053.38 120.796 1053.38 132.58C1053.38 143.807 1055.95 152.501 1061.07 158.643C1066.17 164.784 1073.55 167.855 1083.18 167.836C1089.52 167.836 1094.98 166.435 1099.61 163.614C1104.21 160.811 1107.82 156.781 1110.39 151.542L1130.27 157.683C1126.2 166.819 1120.04 173.92 1111.79 178.929C1103.51 183.957 1094.3 186.471 1084.16 186.471H1084.18ZM1046.8 138.165V122.734L1121.51 122.657V138.088L1046.8 138.165Z" fill="#231815"/>
<path d="M1127.12 97.3044V81.4132L1198.64 81.3365V97.2276L1127.12 97.3044ZM1198.76 183.516C1192.16 184.782 1185.7 185.32 1179.36 185.147C1173.03 184.974 1167.38 183.765 1162.4 181.577C1157.42 179.37 1153.67 175.916 1151.14 171.175C1148.86 166.953 1147.65 162.654 1147.49 158.259C1147.33 153.883 1147.25 148.912 1147.23 143.366L1147.13 53.0088H1167.48L1167.58 142.387C1167.58 146.494 1167.64 150.045 1167.74 153.077C1167.84 156.109 1168.52 158.662 1169.74 160.735C1172.07 164.65 1175.78 166.857 1180.84 167.394C1185.92 167.912 1191.88 167.701 1198.74 166.761V183.516H1198.76Z" fill="#231815"/>
<path d="M1251.01 186.298C1240.28 186.298 1231.17 183.976 1223.66 179.332C1216.16 174.668 1210.42 168.277 1206.44 160.139C1202.45 152.002 1200.42 142.771 1200.36 132.426C1200.42 121.889 1202.47 112.581 1206.54 104.463C1210.6 96.3446 1216.4 89.992 1223.96 85.3859C1231.51 80.7798 1240.58 78.4575 1251.19 78.4575C1262.63 78.4575 1272.4 81.2212 1280.53 86.7485C1288.65 92.2951 1294.01 99.8952 1296.6 109.53L1276.45 115.23C1274.43 109.491 1271.14 105.039 1266.6 101.853C1262.03 98.6669 1256.81 97.0739 1250.93 97.0931C1244.27 97.0931 1238.81 98.6477 1234.56 101.699C1230.32 104.751 1227.15 108.935 1225.07 114.232C1223 119.529 1221.94 125.594 1221.88 132.407C1221.96 142.943 1224.44 151.445 1229.32 157.952C1234.2 164.439 1241.44 167.682 1251.01 167.663C1257.53 167.663 1262.81 166.185 1266.86 163.249C1270.88 160.312 1273.97 156.09 1276.11 150.601L1296.66 155.303C1293.25 165.264 1287.61 172.921 1279.72 178.257C1271.84 183.592 1262.27 186.26 1251.03 186.279L1251.01 186.298Z" fill="#231815"/>
<path d="M1301.8 183.4L1301.66 47.1743H1319.78L1319.86 120.661H1322.3L1322.36 183.381H1301.8V183.4ZM1375.38 183.324L1375.32 133.098C1375.32 129.125 1374.98 125.037 1374.29 120.853C1373.61 116.65 1372.31 112.754 1370.4 109.165C1368.49 105.576 1365.79 102.678 1362.35 100.471C1358.88 98.2639 1354.37 97.17 1348.81 97.17C1345.18 97.17 1341.77 97.7649 1338.54 98.9357C1335.31 100.106 1332.48 101.987 1330.07 104.578C1327.66 107.169 1325.75 110.566 1324.37 114.808C1322.97 119.03 1322.3 124.173 1322.3 130.238L1309.7 125.613C1309.7 116.343 1311.45 108.148 1315 101.047C1318.55 93.9457 1323.65 88.3992 1330.31 84.4264C1336.97 80.4536 1345 78.4576 1354.43 78.4384C1361.67 78.4384 1367.75 79.5515 1372.67 81.8354C1377.58 84.1001 1381.58 87.0749 1384.65 90.7598C1387.72 94.4447 1390.07 98.4559 1391.69 102.812C1393.3 107.169 1394.42 111.411 1395 115.594C1395.6 119.759 1395.88 123.406 1395.88 126.572L1395.94 183.343H1375.38V183.324Z" fill="#231815"/>
<path d="M473.893 195.377C480.691 193.246 485.715 178.046 490.977 172.653C503.995 159.449 512.348 142.886 522.773 127.782C513.544 118.627 511.769 109.05 496.878 112.485C489.443 112.601 485.934 115.921 481.469 121.237C477.183 125.958 471.78 129.605 468.69 135.305C464.086 145.937 459.879 192.44 473.893 195.396V195.377ZM469.827 205.875C457.746 202.804 454.995 187.853 453.4 177.317C450.45 155.207 462.212 135.439 470.564 115.94C474.83 108.724 482.784 106.152 489.921 102.601C504.812 95.7115 517.69 112.14 527.338 121.41C528.016 120.45 528.714 119.51 529.432 118.569C530.309 117.399 531.206 116.247 532.083 115.076C527.338 106.593 539.519 102.39 544.024 97.1701C550.842 84.1194 562.324 95.6347 557.679 106.267C544.044 130.296 528.036 152.655 511.092 174.457C502.619 189.907 489.502 207.007 469.827 205.875Z" fill="#231815"/>
<path d="M596.632 218.618C590.891 213.628 591.668 205.03 589.994 198.217C587.362 181.654 591.867 165.245 594.977 149.142C583.555 158.566 574.145 169.832 567.786 183.266C560.989 197.488 541.014 210.135 530.329 192.248C523.053 176.99 529.452 159.641 534.914 144.901C542.09 130.526 542.05 113.541 549.187 99.3003C557.62 87.7658 568.564 107.073 557.978 112.351C549.426 128.357 544.363 145.649 542.529 163.69C542.09 170.484 539.579 177.432 541.293 184.207C541.373 184.245 541.452 184.283 541.512 184.322C541.572 184.341 541.652 184.379 541.712 184.399C552.576 172.749 565.892 163.92 576.438 151.925C588.12 133.136 600.12 114.501 613.656 96.9973C616.786 93.6386 618.64 87.3052 624.241 87.881C629.743 88.9557 631.597 95.7498 630.202 100.509C627.87 107.879 623.564 114.501 619.258 120.872C617.244 129.873 613.676 138.568 610.985 147.415C606.061 159.852 604.446 173.305 606.141 186.586C607.058 193.285 608.453 199.925 609.55 206.604C611.443 213.839 604.386 224.491 596.572 218.637L596.632 218.618Z" fill="#231815"/>
<path d="M624.082 160.6C634.089 158.566 641.345 150.716 649.578 145.285C662.815 135.382 675.075 124.596 685.521 111.756C677.467 105.058 656.835 111.871 648.163 116.074C636.86 128.415 621.949 141.715 620.912 159.353C621.71 160.312 622.806 160.869 624.062 160.6H624.082ZM629.225 181.194C600.021 174.553 614.393 138.03 623.185 119.99C631.079 106.901 651.751 97.7843 666.702 96.3833C681.594 98.3217 697.82 105.423 704.18 119.855C706.592 130.603 697.701 138.721 690.883 145.765C674.756 162.462 654.801 184.245 629.245 181.213L629.225 181.194Z" fill="#231815"/>
<path d="M582.079 307.421C567.686 305.463 553.134 300.262 541.851 290.935C529.372 278.959 530.308 259.824 539.159 246.159C546.137 232.744 559.094 247.464 553.871 257.463C542.409 279.669 543.625 281.492 569.261 281.396C592.166 285.676 602.791 279.419 613.755 259.517C621.032 244.048 626.374 227.639 636.042 213.341C641.923 204.685 647.764 196.029 652.708 186.817C656.316 177.681 659.844 168.469 664.27 159.679C670.948 144.517 684.225 134.058 693.275 120.431C698.139 109.492 704.857 99.5501 714.266 91.9691C718.971 84.4458 724.533 77.172 732.606 73.0264C736.972 67.9789 753.099 50.4564 757.545 61.4919C758.96 65.9637 755.252 69.2264 751.126 69.9749C747.179 71.5103 743.69 74.1204 740.122 76.3467C734.978 79.8013 733.463 86.1347 729.158 90.4338C726.626 94.0995 723.277 96.9975 720.147 100.126C717.934 103.657 716.1 107.476 713.608 110.816C706.731 119.644 697.581 126.285 691.521 135.747C684.424 151.945 676.271 167.74 665.586 181.885C650.694 202.343 648.422 228.502 637.119 250.746C624.4 271.723 613.337 312.929 582.099 307.402L582.079 307.421Z" fill="#231815"/>
<path d="M507.045 230.441C499.47 228.695 491.676 224.069 484.519 221.267C475.827 217.563 466.897 212.842 461.773 203.63C457.507 196.298 454.697 188.065 450.65 180.561C447.101 174.016 442.038 168.796 437.573 163.038C433.885 157.434 431.094 151.216 428.283 145.036C426.569 141.485 424.675 137.935 421.864 135.344C417.259 138.299 411.418 140.257 406.195 137.532C403.644 136.303 400.972 134.749 399.158 132.273C394.713 126.861 395.51 114.213 403.763 115.557C406.355 115.595 408.906 115.96 411.478 116.286C413.372 116.516 415.246 117.111 417.06 117.86C418.196 117.668 419.332 117.437 420.469 117.207C427.446 115.326 434.622 113.311 440.722 109.031C446.125 104.905 450.73 99.5886 455.095 94.1764C457.946 90.1461 460.717 86.039 463.986 82.45C468.252 77.4984 473.993 74.4853 477.98 69.2266C482.645 63.0083 484.28 55.0436 485.476 47.1748C486.692 39.9777 483.263 32.7806 478.838 27.5987C467.455 13.9531 461.195 18.7895 447.819 23.1461C440.702 25.6411 433.785 28.8078 426.768 31.6099C424.057 32.8382 421.425 34.316 418.934 36.0049C419.711 41.2828 418.774 46.8677 418.116 51.9536C417.578 61.7608 414.827 71.4721 409.485 79.1682C406.375 84.1581 402.089 87.8622 397.922 91.6431C394.872 94.7138 392.301 98.322 389.59 101.757C385.623 106.613 380.659 111.219 374.579 112.102C362.618 113.58 356.299 101.066 357.475 89.0905C358.113 81.6631 361.223 74.8115 365.588 69.3801C370.592 62.8548 377.948 59.2275 382.652 52.3375C390.128 41.4939 398.301 30.2281 410.142 25.2381C408.647 22.6855 406.993 20.2289 405.697 17.5228C404.919 16.0066 404.122 14.3945 402.767 13.4157C401.491 12.6672 399.996 12.648 398.839 11.6692C397.583 10.5561 397.922 7.25501 399.717 7.46612C399.717 7.46612 399.717 7.44693 399.717 7.42773C401.989 7.60046 403.365 9.74999 405.159 11.1318C409.684 13.5117 412.574 18.1754 414.309 23.2997C421.764 19.9027 428.084 13.9339 435.798 11.1894C441.859 9.17422 448.437 7.86915 454.836 8.94392C461.155 10.0571 467.535 10.652 473.814 12.0531C492.852 15.239 496.46 37.4059 493.868 55.1971C493.051 59.477 491.357 63.4114 489.443 67.1538C486.592 72.662 483.841 78.2277 481.489 84.0238C478.479 91.336 474.512 98.3795 468.491 102.947C462.95 107.035 456.969 110.413 450.969 113.618C442.995 117.341 436.556 123.752 429.718 129.433C436.676 141.063 443.294 153.538 448.995 165.802C453.481 173.862 460.278 179.831 466.717 185.877C472.917 191.423 476.784 199.33 481.927 205.952C490.081 215.202 501.822 220.135 513.125 217.889C513.723 212.362 512.188 206.643 509.936 201.672C509.697 201.23 509.477 200.789 509.218 200.348C507.245 197.104 508.082 190.56 512.288 190.771C513.624 190.943 514.62 191.98 515.358 193.17C518.627 198.102 519.963 204.071 520.74 209.982C521.837 216.469 523.272 225.182 517.87 229.539C514.541 231.247 510.633 231.055 507.045 230.383V230.441ZM375.875 96.0189C381.775 94.5603 387.835 92.2188 392.899 88.6299C397.623 84.6187 400.414 78.5924 403.624 73.1418C406.833 66.4821 410.92 60.4366 413.95 53.6809C415.864 49.3627 414.947 44.4495 413.751 39.9585C408.249 44.2576 402.687 48.4798 396.647 51.8385C392.002 55.4658 387.018 58.6517 383.051 63.2386C378.665 69.5529 375.436 76.7307 371.529 83.4288C369.715 87.0945 367.243 90.6067 366.665 94.8482C369.436 96.6714 372.825 96.4987 375.855 96.0381L375.875 96.0189Z" fill="#231815"/>
<path d="M276.998 232.379C265.077 233.704 253.096 231.708 241.415 228.464C239.521 228.003 237.627 227.524 235.813 226.775C231.308 224.914 229.254 219.156 229.753 214.147C230.032 209.656 233.481 204.781 237.886 206.316C239.72 206.95 241.554 207.487 243.428 207.967C248.073 208.984 252.638 207.967 257.043 206.527C264.539 204.186 272.194 202.305 280.048 201.94C285.211 201.71 290.434 202.094 295.617 202.075C300.382 201.653 305.146 200.866 309.851 199.925C312.103 199.081 314.376 198.217 316.628 197.373C318.702 195.991 320.795 194.59 322.868 193.208C327.353 189.005 331.779 184.687 335.626 179.735C339.115 175.321 342.384 170.58 346.212 166.55C348.066 164.9 349.919 163.249 351.793 161.598C355.322 159.238 358.87 156.916 362 153.902C367.263 147.838 370.293 139.988 374.579 133.098C379.941 125.037 384.028 115.998 389.291 107.899C393.118 103.427 396.946 98.936 400.454 94.1187C403.145 88.7833 405.896 83.467 409.265 78.6306C412.435 73.9093 416.402 69.9749 419.831 65.5031C421.724 62.6627 423.718 59.8798 426.07 57.4808C429.3 54.007 433.446 51.7999 436.935 48.6716C438.888 46.3685 440.702 43.9695 442.437 41.4553C445.367 37.6745 448.975 34.5845 452.882 32.1471C454.796 30.4198 456.71 28.6925 458.644 26.9652C462.91 22.9157 468.81 22.551 473.415 19.154C476.346 16.5055 479.515 14.2408 482.904 12.3791C485.994 11.17 489.263 10.3832 492.553 10.0569C495.323 9.40436 497.775 7.84979 500.427 6.83261C503.497 6.41038 506.706 6.83261 509.836 7.02453C511.231 7.02453 512.667 6.62149 514.062 6.83261C516.056 7.3316 518.069 7.88818 519.883 9.02052C521.279 9.34678 522.594 9.8074 523.87 10.5175C525.305 11.3236 526.561 12.5327 527.817 13.6075C529.053 14.2792 529.751 16.1024 529.312 17.5419C528.794 19.2308 527.06 18.8853 526.262 17.6378C524.628 15.9873 522.794 14.6054 520.979 13.1852C519.146 11.8802 516.913 12.6862 514.899 12.6286C513.285 12.7054 511.71 12.3216 510.115 12.0145C507.205 12.264 504.274 12.4367 501.384 12.9549C499.57 12.8206 497.756 12.5903 495.941 12.5903C491.536 13.4539 488.007 16.8509 484.001 18.8277C479.954 21.054 475.409 21.9177 471.501 24.5086C469.986 26.0248 468.471 27.541 466.956 29.0572C463.607 32.8188 459.082 34.6229 455.354 37.7896C452.843 40.3614 450.41 43.1059 447.66 45.3321C444.729 47.6736 441.659 49.7463 438.828 52.2413C435.838 56.0606 433.386 60.3404 430.496 64.2556C428.682 66.5203 426.668 68.5739 424.754 70.7426C420.05 75.6366 417.239 82.2579 412.893 87.4782C410.043 91.4126 406.753 94.9056 403.484 98.4178C400.474 103.753 397.823 109.281 395.67 115.134C393.038 120.738 390.028 126.131 386.739 131.275C383.191 137.762 379.822 144.402 375.615 150.39C370.612 157.798 366.924 166.128 363.076 174.323C361.781 177.49 359.807 180.081 357.794 182.691C356 185.704 353.288 187.661 350.697 189.715C341.048 197.008 330.224 202.19 320.157 208.696C312.303 214.358 304.488 220.058 296.175 224.875C290.295 228.598 283.796 231.132 277.078 232.322L276.998 232.379Z" fill="#231815"/>
<path d="M671.108 206.854C667.959 205.318 666.763 201.844 666.583 198.85C666.184 194.187 668.796 189.753 672.364 186.452C675.275 183.573 678.803 181.27 681.634 178.334C685.023 175.378 687.335 171.655 690.325 168.431C693.475 165.322 696.306 161.944 700.014 159.334C701.768 157.722 704.379 156.666 705.177 154.459C706.433 151.983 708.047 149.661 709.582 147.319C710.798 145.093 712.533 143.193 714.387 141.37C719.211 136.034 725.211 131.678 730.414 126.63C741.039 116.055 745.465 102.122 753.439 90.0499C758.423 83.4094 764.582 77.5366 769.526 70.8769C771.041 67.998 772.796 65.2152 774.031 62.2212C771.719 63.9101 769.427 65.5798 767.114 67.2687C764.004 69.1688 760.436 70.4547 757.366 72.4314C753.738 74.6961 750.11 76.9416 746.601 79.3406C743.79 80.7609 741.079 82.0851 738.448 83.7165C736.036 85.4437 733.684 87.2286 731.351 89.0327C728.839 90.5873 726.188 91.9883 723.776 93.6964C720.407 96.4985 718.154 100.087 714.925 102.985C711.018 105.384 706.732 107.745 704.838 111.814C703.981 113.522 702.565 114.961 701.648 116.65C700.532 118.8 699.316 121.026 698.838 123.348C698.917 124.845 698.937 126.63 698.758 128.07C698.598 129.068 698.578 130.142 699.017 131.044C699.416 131.774 699.914 132.407 700.452 133.04C700.971 133.789 701.13 134.748 701.788 135.439C703.144 136.38 704.519 137.493 706.134 137.992C706.851 137.992 707.449 138.107 708.127 138.299C708.945 138.203 709.523 138.529 710.3 138.664C711.237 138.376 712.593 138.088 713.41 138.664C713.749 138.971 713.609 139.643 713.091 139.719C712.892 139.854 712.672 139.873 712.393 139.815C711.456 139.969 710.679 139.431 709.802 139.508C709.124 139.7 708.705 139.662 708.028 139.47C707.41 139.47 707.529 139.47 706.772 139.297C706.313 139.201 705.775 138.817 705.356 138.606C704.838 138.549 704.22 138.51 703.781 138.203C702.904 137.608 701.927 137.09 701.25 136.284C700.452 135.689 699.456 135.152 698.917 134.365C698.459 133.347 698.1 132.33 697.841 131.256C696.764 129.183 695.768 126.995 696.226 124.673C696.725 123.041 697.143 121.429 697.462 119.759C698.459 116.631 700.034 113.656 701.728 110.797C703.323 108.916 705.117 107.169 706.612 105.193C707.509 103.638 708.486 102.103 709.483 100.586C710.4 99.2621 711.177 97.8035 712.672 96.9015C715.563 94.5792 718.952 92.8519 722.002 90.7216C724.155 88.6872 726.348 86.6529 728.56 84.6569C732.687 81.7589 737.112 79.1487 740.86 75.8477C745.385 72.086 750.807 69.3223 755.731 66.0021C758.064 64.1212 760.416 62.2596 762.748 60.3787C765.081 58.6898 767.712 57.308 770.144 55.6959C773.952 53.2968 777.48 50.5715 781.367 48.2685C786.271 40.9946 790.517 33.2794 796.498 26.6197C800.525 22.0519 805.608 18.3286 810.054 14.0872C814.18 10.2487 817.409 5.56584 822.453 2.59105C824.048 1.45871 825.902 0.633445 827.935 0.422331C835.171 -1.4585 841.869 4.58704 836.906 10.4982C834.234 13.9144 831.145 17.1195 828.294 20.4206C825.064 24.259 821.755 28.0207 818.027 31.4945C814.678 35.0642 811.09 38.538 806.864 41.2825C804.771 42.3573 802.757 43.5472 800.644 44.5836C790.996 48.8826 792.371 47.5967 787.906 56.1757C786.132 59.3232 784.477 62.5667 782.265 65.5031C779.773 68.7849 777.699 72.2779 775.606 75.7709C771.679 84.2346 769.267 93.3126 763.984 101.22C758.781 108.474 751.804 114.462 745.904 121.256C740.84 126.592 737.411 132.848 734.042 139.086C746.601 132.388 758.143 124.193 771.719 119.068C776.005 117.284 780.371 115.595 784.796 114.136C786.77 113.445 788.923 112.889 791.016 113.426C798.99 115.883 798.691 125.479 796.936 131.524C795.202 137.742 791.634 143.366 788.524 149.104C785.494 154.651 783.122 160.524 782.145 166.646C781.188 170.734 784.996 173.881 788.006 176.472C795.96 183.19 805.03 184.245 815.595 182.844C826.819 181.558 838.181 181.654 849.385 180.253C855.864 179.524 861.944 177.394 867.805 174.918C870.855 173.709 873.944 172.538 876.915 171.156C878.27 170.523 880.024 170.695 881.34 171.329C886.264 173.881 886.723 181.443 882.018 184.418C874.383 188.717 866.469 192.862 857.917 195.53C845.537 199.177 832.161 199.791 819.303 198.371C811.329 197.334 803.655 194.897 795.98 192.805C780.57 189.062 765.719 184.072 766.695 167.356C767.393 160.044 771.739 153.595 775.925 147.435C779.733 141.466 782.982 135.19 785.354 128.665C776.065 133.175 766.955 138.03 757.226 141.792C748.296 145.131 739.803 149.373 732.228 154.747C728.102 157.664 724.075 160.696 720.128 163.786C713.948 169.237 708.446 175.282 702.286 180.752C697.243 185.186 692.638 190.003 688.571 195.185C686.119 198.179 683.607 201.134 680.737 203.821C678.644 206.854 675.075 208.946 671.168 206.969L671.108 206.854Z" fill="#231815"/>
</g>
<defs>
<clipPath id="clip0_189_2832">
<rect width="1396" height="355" fill="white"/>
</clipPath>
</defs>
</svg>
