<svg width="" height="" viewBox="0 0 44 44" fill="none" xmlns="http://www.w3.org/2000/svg">
<g clip-path="url(#clip0_189_2780)">
<path d="M42.5041 15.4028C41.5249 12.2407 39.8112 9.54789 37.6182 7.44666H37.659C36.486 6.33484 34.8438 5.90644 33.2423 6.41644C33.0893 6.45724 32.9261 6.53885 32.8139 6.57965L32.6915 6.70205C32.7323 6.53885 32.7323 6.38584 32.7323 6.26344C32.7323 4.56001 31.7939 3.09119 30.4679 2.34658L30.3863 2.30578C27.8056 0.877756 24.7966 0.0107422 21.5529 0.0107422C18.3093 0.0107422 15.2186 0.877756 12.638 2.34658H12.5564C11.2304 3.10139 10.292 4.56001 10.292 6.26344L10.2512 6.45724H10.2104C8.60893 5.94724 6.9667 6.37564 5.83449 7.44666L5.79368 7.48746C3.60065 9.54789 1.92782 12.1999 0.907807 15.2906C-0.0918093 18.4424 -0.244812 21.6555 0.336598 24.6237V24.6645C0.612002 26.2048 1.70342 27.5104 3.30485 28.0714C3.45785 28.1122 3.62105 28.153 3.77405 28.1938L3.49865 28.4692C2.51943 29.8156 2.47863 31.5599 3.15184 32.9777L3.19264 33.0185C4.47786 35.7113 6.5179 38.1696 9.12914 40.026C11.822 41.9232 14.7902 43.035 17.7687 43.3512C19.3293 43.5144 20.9001 42.8412 21.8691 41.4948C21.9099 41.4132 21.9099 41.3724 21.9915 41.301L22.0731 41.5356C23.0524 42.882 24.6538 43.4736 26.1736 43.2798H26.2552C29.1827 42.882 32.1203 41.7396 34.7009 39.7914C37.353 37.8125 39.3114 35.2829 40.5252 32.5085L40.566 32.5493C41.1883 31.1314 41.076 29.3872 40.0968 28.0408C41.6575 27.5104 42.7183 26.1844 43.0243 24.7053V24.6237C43.6159 21.6963 43.4935 18.4934 42.5143 15.4028H42.5041ZM11.9444 5.81463C12.689 3.08099 17.2587 3.8766 17.2587 3.8766C20.1861 4.27441 21.5529 4.23361 21.5529 4.23361C21.5529 4.23361 22.9606 4.27441 25.888 3.8766C25.888 3.8766 30.4169 3.08099 31.1615 5.81463C31.1615 5.81463 31.5287 6.97745 30.6821 7.54866C30.6821 7.54866 30.6821 7.54866 30.6923 7.54866L30.6107 7.58946C30.6107 7.58946 30.6515 7.55886 30.6821 7.54866C28.0708 5.88604 24.9802 4.93742 21.6651 4.93742C18.3501 4.93742 15.1778 5.92684 12.5564 7.63026L12.4748 7.58946C11.5364 7.03865 11.924 5.80443 11.924 5.80443L11.9444 5.81463ZM3.42725 26.368C1.08121 24.7869 3.23344 20.6661 3.23344 20.6661C4.51866 17.9324 4.87567 16.586 4.87567 16.586C4.87567 16.586 5.38568 15.2804 5.89569 12.3121C5.89569 12.3121 6.5587 7.68126 9.37394 7.80367C9.37394 7.80367 10.6286 7.84447 10.8632 8.91548V8.95628C7.15031 12.0877 4.84507 16.7594 4.84507 22.0227C4.84507 23.5731 4.95727 24.9093 5.35508 26.2966L5.31428 26.3782C4.52886 27.0922 3.43745 26.3782 3.43745 26.3782L3.42725 26.368ZM20.3085 40.893C18.1155 42.678 14.8412 39.3936 14.8412 39.3936C12.689 37.3331 11.516 36.5783 11.516 36.5783C11.516 36.5783 10.4246 35.7113 7.76232 34.3649C7.76232 34.3649 3.58025 32.3453 4.51866 29.6932C4.51866 29.6932 4.90627 28.4692 6.00789 28.5406L6.16089 28.663C8.58853 34.5179 14.168 38.7204 20.7369 39.0774H20.8185C21.2877 40.0668 20.3085 40.9032 20.3085 40.9032V40.893ZM21.6651 38.5266C12.6686 38.5266 5.38568 31.1416 5.38568 22.0329C5.38568 12.9241 12.6686 5.52903 21.6651 5.52903C30.6617 5.52903 37.9446 12.9139 37.9446 22.0227C37.9446 31.1314 30.6515 38.5164 21.6651 38.5164V38.5266ZM35.9046 34.0895C33.2831 35.5175 32.1917 36.4253 32.1917 36.4253C32.1917 36.4253 31.0595 37.2209 28.9481 39.2712C28.9481 39.2712 25.7452 42.678 23.5522 40.9338C23.5522 40.9338 22.5322 40.179 22.9708 39.1896L23.0116 39.0672C29.5805 38.5164 35.0886 34.2017 37.3938 28.2958C38.4852 28.1428 39.036 29.326 39.036 29.326C40.0152 31.9373 35.9148 34.0793 35.9148 34.0793L35.9046 34.0895ZM39.9234 26.4496C39.9234 26.4496 38.7912 27.2044 37.965 26.4496C38.3526 25.0215 38.5566 23.5629 38.5566 22.0125C38.5566 16.8308 36.2514 12.2305 32.6507 9.06849C32.8853 7.99747 34.1399 7.84447 34.1399 7.84447C36.9552 7.76287 37.5774 12.3937 37.5774 12.3937C38.0874 15.3212 38.5566 16.6676 38.5566 16.6676C38.5566 16.6676 38.9136 18.014 40.158 20.7477C40.158 20.7477 42.2695 24.9093 39.9234 26.4496Z" fill="#981A45"/>
<path d="M15.3716 33.1298V32.4668H13.6172V34.9658H15.3512V34.3028H14.27V33.1298H15.3716Z" fill="#981A45"/>
<path d="M17.0341 32.5083V33.3855H16.1875V34.0485H17.0341V34.9257H17.6971V32.5083H17.0341Z" fill="#981A45"/>
<path d="M20.992 34.9146H20.3902V33.1296H18.646V32.5176H20.992V34.9146Z" fill="#981A45"/>
<path d="M24.7049 34.6186L24.2255 34.9961L23.3483 33.5578L22.4711 34.9961L21.9917 34.6186L23.3483 32.4868L24.7049 34.6186Z" fill="#981A45"/>
<path d="M26.1736 32.5176V33.4152H25.2046V34.0782H26.1736V34.9044H26.8264V32.5176H26.1736Z" fill="#981A45"/>
<path d="M27.7139 33.711C27.7139 34.374 28.2443 34.9044 28.8971 34.9044C29.5499 34.9044 30.0803 34.3638 30.0803 33.711C30.0803 33.0582 29.5499 32.5176 28.8971 32.5176C28.2443 32.5176 27.7139 33.0582 27.7139 33.711ZM28.3667 33.711C28.3667 33.4152 28.6013 33.1704 28.8971 33.1704C29.1929 33.1704 29.4275 33.4152 29.4275 33.711C29.4275 34.0068 29.1929 34.2516 28.8971 34.2516C28.6013 34.2516 28.3667 34.0068 28.3667 33.711Z" fill="#981A45"/>
<path d="M20.645 13.0044V13.4532H21.6854H22.7259V13.0044H21.6854H20.645Z" fill="#981A45"/>
<path d="M11.9239 22.7148H11.1997V24.6223H11.9239V22.7148Z" fill="#981A45"/>
<path d="M14.8717 22.7148H14.1475V24.6223H14.8717V22.7148Z" fill="#981A45"/>
<path d="M13.3516 13.2383H12.709V13.6871H13.3516V13.2383Z" fill="#981A45"/>
<path d="M32.1715 22.7148H31.4473V24.6223H32.1715V22.7148Z" fill="#981A45"/>
<path d="M29.2232 22.7148H28.499V24.6223H29.2232V22.7148Z" fill="#981A45"/>
<path d="M30.6514 13.2383H30.0088V13.6871H30.6514V13.2383Z" fill="#981A45"/>
<path d="M31.2635 12.2185V11.2903H30.5801V10.1887H30.0905V11.2903H29.4173V12.2083C28.6216 12.9734 27.571 13.9832 27.4078 14.1362C27.1936 13.8302 24.2254 9.6379 24.2254 9.6379V9.07689H23.5318V8.65868H22.4914V9.07689H21.9303V7.73047H21.4407V9.07689H20.8797V8.65868H19.8393V9.07689H19.1457V9.6379C19.1457 9.6379 16.1775 13.8302 15.9632 14.1362C15.8 13.9832 14.7494 12.9734 13.9538 12.2083V11.2903H13.2908V10.1887H12.791V11.2903H12.1076V12.2185L9.91455 14.33V30.6604H33.4565V14.33L31.2635 12.2185ZM29.6723 12.4531H30.9983C31.5899 13.0244 32.4263 13.8302 32.8445 14.228H27.826C28.3258 13.7486 29.1113 12.9938 29.6723 12.4531ZM27.5608 14.585H33.1097V15.5438H27.5608V14.585ZM33.1097 15.9008V17.8388C32.8547 17.6246 32.4365 17.39 31.8143 17.39C31.0085 17.39 30.5495 17.7674 30.3455 18.0122C30.1313 17.7674 29.6825 17.39 28.8767 17.39C28.2442 17.39 27.8362 17.6144 27.5812 17.8388V15.9008H33.1301H33.1097ZM32.9057 18.1244H30.7025C30.9065 17.9408 31.2533 17.7368 31.8041 17.7368C32.3549 17.7368 32.7017 17.9408 32.9057 18.1244ZM29.9579 18.1244H27.7546C27.9586 17.9408 28.3054 17.7368 28.8563 17.7368C29.4071 17.7368 29.7539 17.9408 29.9579 18.1244ZM25.5106 14.585V17.441H23.5012V14.585H25.5106ZM23.5012 14.228V11.8105C23.9704 12.4327 24.9292 13.6976 25.327 14.228H23.5012ZM21.6855 21.2049H20.8695V18.9098H22.5016V21.2049H21.6855ZM23.1544 14.228H20.2167V11.4637H23.1544V14.228ZM21.6855 14.585H23.1544V17.441H22.5016V16.217C22.5016 15.758 22.1343 15.3908 21.6855 15.3908C21.2367 15.3908 20.8695 15.758 20.8695 16.217V17.441H20.2167V14.585H21.6855ZM19.8699 14.228H18.0339C18.4317 13.6976 19.4007 12.4327 19.8699 11.8105V14.228ZM19.8699 14.585V17.441H17.8605V14.585H19.8699ZM19.2273 18.9098V21.2049H17.8503V18.9098H19.2273ZM24.1438 21.2049V18.9098H25.5106V21.2049H24.1438ZM27.214 17.747C27.061 17.5634 26.8366 17.441 26.5816 17.441H25.8676V14.585H27.214V17.747ZM19.3191 9.99491H24.052C24.1336 10.1071 26.2348 13.0856 27.0508 14.228H25.7758L23.4196 11.1169H19.9617L17.6055 14.228H16.3305C17.1363 13.0856 19.2477 10.1071 19.3293 9.99491H19.3191ZM17.5035 14.585V17.441H16.7895C16.5345 17.441 16.2999 17.5634 16.1571 17.747V14.585H17.5035ZM12.3728 12.4531H13.6988C14.2598 12.9938 15.0554 13.7588 15.545 14.228H10.5266C10.9448 13.82 11.7812 13.0244 12.3728 12.4531ZM10.2614 14.585H15.8102V15.5438H10.2614V14.585ZM15.8102 15.9008V17.8388C15.5552 17.6246 15.137 17.39 14.5148 17.39C13.709 17.39 13.25 17.7674 13.046 18.0122C12.8318 17.7674 12.383 17.39 11.5772 17.39C10.9448 17.39 10.5368 17.6144 10.2818 17.8388V15.9008H15.8306H15.8102ZM15.6062 18.1244H13.403C13.607 17.9408 13.9538 17.7368 14.5046 17.7368C15.0554 17.7368 15.4022 17.9408 15.6062 18.1244ZM12.6584 18.1244H10.4552C10.6592 17.9408 11.006 17.7368 11.5568 17.7368C12.1076 17.7368 12.4544 17.9408 12.6584 18.1244ZM11.3936 30.3034H10.2614V26.1928H11.3936V30.3034ZM10.4654 25.8358C10.6694 25.6624 11.0162 25.4482 11.567 25.4482C12.1178 25.4482 12.4646 25.6522 12.6686 25.8358H10.4654ZM12.8624 30.3034H11.7404V26.1928H12.8624V30.3034ZM14.3312 30.3034H13.2092V26.1928H14.3312V30.3034ZM13.4132 25.8358C13.6172 25.6624 13.964 25.4482 14.5148 25.4482C15.0656 25.4482 15.4124 25.6522 15.6164 25.8358H13.4132ZM15.8102 30.3034H14.678V26.1928H15.8102V30.3034ZM15.8102 25.5502C15.5552 25.3359 15.137 25.1013 14.5148 25.1013C13.709 25.1013 13.25 25.4788 13.046 25.7236C12.8318 25.4788 12.383 25.1013 11.5772 25.1013C10.9448 25.1013 10.5368 25.3258 10.2818 25.5502V21.5721H15.8306V25.5502H15.8102ZM15.8102 21.2661L10.2614 21.2151V20.4297H15.8102V21.2661ZM15.8102 20.0829H14.8718V19.3179H14.1476V20.0829H11.924V19.3179H11.1998V20.0829H10.2614V18.4814H15.8102V20.0829ZM16.1571 23.9691C16.3101 24.1527 16.5345 24.2751 16.7895 24.2751C17.2383 24.2751 17.5953 23.9181 17.6055 23.4693V21.5721H18.1869V24.7545H17.5647V30.3136H16.1571V23.9793V23.9691ZM24.8374 30.3034H18.5439V21.5721H19.2375V23.3877C19.2375 23.3877 19.2375 23.4489 19.2375 23.4795C19.2375 23.9385 19.6047 24.3057 20.0535 24.3057C20.5023 24.3057 20.8695 23.9385 20.8695 23.4795V21.5823H22.5016V23.4795C22.5016 23.9385 22.8688 24.3057 23.3176 24.3057C23.7664 24.3057 24.1336 23.9385 24.1336 23.4795C24.1336 23.4489 24.1336 23.4183 24.1336 23.3877V21.5721H24.8272V30.3034H24.8374ZM25.8064 30.3034V24.7443H25.1842V21.5619H25.7656V23.4591C25.7758 23.9079 26.143 24.2649 26.5816 24.2649C26.8366 24.2649 27.0712 24.1425 27.214 23.9589V30.2932H25.8064V30.3034ZM28.6931 30.3034H27.5608V26.1928H28.6931V30.3034ZM27.7648 25.8358C27.9688 25.6624 28.3156 25.4482 28.8665 25.4482C29.4173 25.4482 29.7641 25.6522 29.9681 25.8358H27.7648ZM30.1619 30.3034H29.0399V26.1928H30.1619V30.3034ZM31.6307 30.3034H30.5087V26.1928H31.6307V30.3034ZM30.7127 25.8358C30.9167 25.6624 31.2635 25.4482 31.8143 25.4482C32.3651 25.4482 32.7119 25.6522 32.9159 25.8358H30.7127ZM33.1097 30.3034H31.9775V26.1928H33.1097V30.3034ZM33.1097 25.5502C32.8547 25.3359 32.4365 25.1013 31.8143 25.1013C31.0085 25.1013 30.5495 25.4788 30.3455 25.7236C30.1313 25.4788 29.6825 25.1013 28.8767 25.1013C28.2442 25.1013 27.8362 25.3258 27.5812 25.5502V21.5721H33.1301V25.5502H33.1097ZM33.1097 21.2253H27.5608V20.4297H33.1097V21.2253ZM33.1097 20.0829H32.1713V19.3179H31.4471V20.0829H29.2235V19.3179H28.4992V20.0829H27.5608V18.4814H33.1097V20.0829Z" fill="#981A45"/>
<path d="M21.6853 24.3056C21.5527 24.3056 19.9716 24.3056 19.8696 25.9988V29.6709H21.6853H23.5009V26.009C23.3887 24.2954 21.8179 24.2954 21.6853 24.3056ZM23.1541 29.3241H20.2164V26.0192C20.3082 24.6116 21.6241 24.6626 21.6751 24.6626V24.4892L21.6955 24.6626C21.7567 24.6626 23.0623 24.6116 23.1541 26.0294V29.3241Z" fill="#981A45"/>
</g>
<defs>
<clipPath id="clip0_189_2780">
<rect width="43.3711" height="43.3711" fill="white"/>
</clipPath>
</defs>
</svg>
